<svg width="192" height="32" viewBox="0 0 192 32" fill="none" xmlns="http://www.w3.org/2000/svg">
<path d="M184.068 31.3797C178.824 31.3797 176.354 28.1497 176.354 22.1077V20.3597H183.118V24.5397C183.118 25.6797 183.384 26.0597 184.106 26.0597C184.828 26.0597 185.094 25.6797 185.094 24.5397V22.2217C185.094 20.6637 184.562 19.9417 183.612 19.1817L180.648 16.7497C178.026 14.5837 176.316 12.3797 176.316 8.38973C176.316 3.25973 179.014 0.219727 184.106 0.219727C188.894 0.219727 191.706 3.03173 191.706 7.89573V10.4417H184.98V7.05973C184.98 5.91973 184.714 5.53973 183.992 5.53973C183.308 5.53973 183.042 5.91973 183.042 7.05973V8.61773C183.042 10.1757 183.574 10.8977 184.524 11.6577L187.45 14.0517C189.958 16.1037 191.858 17.8897 191.858 22.6777C191.858 28.4917 189.198 31.3797 184.068 31.3797Z" fill="#672145"/>
<path d="M168.35 30.9996V0.599609H174.962V30.9996H168.35Z" fill="#672145"/>
<path d="M160.399 30.9996C160.019 30.5436 159.981 29.4416 159.981 28.3016V21.2336C159.981 20.2456 159.791 19.4856 158.955 19.4856H157.929V30.9996H151.317V0.599609H158.917C164.579 0.599609 166.745 2.38561 166.745 8.50361V8.92161C166.745 14.1656 165.719 15.7996 163.097 16.7876C166.061 17.9276 166.745 20.1696 166.745 22.4496V28.3016C166.745 29.4036 166.821 30.2396 167.163 30.9996H160.399ZM157.929 14.5456H158.955C159.791 14.5456 159.981 13.7856 159.981 12.7976V7.28761C159.981 6.29961 159.791 5.53961 158.955 5.53961H157.929V14.5456Z" fill="#672145"/>
<path d="M137.55 30.9996V0.599609H149.71V6.10961H144.162V13.0636H149.33V18.5356H144.162V25.4896H149.71V30.9996H137.55Z" fill="#672145"/>
<path d="M120.16 30.9996L123.808 0.599609H132.966L136.614 30.9996H129.888L129.622 26.4776H127.152L126.886 30.9996H120.16ZM127.456 20.9676H129.28L128.52 7.70561L128.444 6.75561H128.292L128.216 7.70561L127.456 20.9676Z" fill="#672145"/>
<path d="M104.262 30.9996V0.599609H111.254C117.828 0.599609 119.614 2.76561 119.614 8.88361V22.7156C119.614 28.7576 117.828 30.9996 111.254 30.9996H104.262ZM110.874 26.0596H111.368C112.508 26.0596 112.85 25.6416 112.85 24.2356V7.36361C112.85 5.91961 112.47 5.53961 111.292 5.53961H110.874V26.0596Z" fill="#672145"/>
<path d="M90.4949 30.9996V0.599609H102.655V6.10961H97.1069V13.0636H102.275V18.5356H97.1069V25.4896H102.655V30.9996H90.4949Z" fill="#672145"/>
<path d="M69.157 30.9996V0.599609H76.529L78.885 15.3816L81.241 0.599609H88.613V30.9996H82.761V16.5216L80.177 30.9996H77.593L75.009 16.5216V30.9996H69.157Z" fill="#672145"/>
<path d="M59.6858 31.3797C54.6318 31.3797 51.9338 28.4917 51.9338 22.0697V9.52973C51.9338 3.10773 54.6318 0.219727 59.6858 0.219727C64.7398 0.219727 67.4378 3.10773 67.4378 9.52973V22.0697C67.4378 28.4917 64.7398 31.3797 59.6858 31.3797ZM58.6978 24.5397C58.6978 25.5277 58.8878 26.0597 59.6858 26.0597C60.4838 26.0597 60.6738 25.5277 60.6738 24.5397V7.13573C60.6738 6.10973 60.4838 5.53973 59.6858 5.53973C58.8878 5.53973 58.6978 6.07173 58.6978 7.09773V24.5397Z" fill="#672145"/>
<path d="M42.6526 31.3797C37.5986 31.3797 34.9006 28.4917 34.9006 22.0697V9.52973C34.9006 3.10773 37.5986 0.219727 42.6526 0.219727C47.7066 0.219727 50.4046 3.10773 50.4046 9.52973V22.0697C50.4046 28.4917 47.7066 31.3797 42.6526 31.3797ZM41.6646 24.5397C41.6646 25.5277 41.8546 26.0597 42.6526 26.0597C43.4506 26.0597 43.6406 25.5277 43.6406 24.5397V7.13573C43.6406 6.10973 43.4506 5.53973 42.6526 5.53973C41.8546 5.53973 41.6646 6.07173 41.6646 7.09773V24.5397Z" fill="#672145"/>
<path d="M27.1394 30.9996C26.7594 30.5436 26.7214 29.4416 26.7214 28.3016V21.2336C26.7214 20.2456 26.5314 19.4856 25.6954 19.4856H24.6694V30.9996H18.0574V0.599609H25.6574C31.3194 0.599609 33.4854 2.38561 33.4854 8.50361V8.92161C33.4854 14.1656 32.4594 15.7996 29.8374 16.7876C32.8014 17.9276 33.4854 20.1696 33.4854 22.4496V28.3016C33.4854 29.4036 33.5614 30.2396 33.9034 30.9996H27.1394ZM24.6694 14.5456H25.6954C26.5314 14.5456 26.7214 13.7856 26.7214 12.7976V7.28761C26.7214 6.29961 26.5314 5.53961 25.6954 5.53961H24.6694V14.5456Z" fill="#672145"/>
<path d="M0.949951 30.9996V0.599609H7.94195C14.516 0.599609 16.302 2.76561 16.302 8.88361V22.7156C16.302 28.7576 14.516 30.9996 7.94195 30.9996H0.949951ZM7.56195 26.0596H8.05595C9.19595 26.0596 9.53795 25.6416 9.53795 24.2356V7.36361C9.53795 5.91961 9.15795 5.53961 7.97995 5.53961H7.56195V26.0596Z" fill="#672145"/>
</svg>
