<svg width="112" height="60" viewBox="0 0 112 60" fill="none" xmlns="http://www.w3.org/2000/svg">
<path d="M32.1054 51.8824C36.6079 52.4177 40.5327 49.4636 44.0192 47.0249C45.9716 45.6569 47.944 44.4078 50.0558 43.2975C52.5262 41.989 55.0365 40.8192 57.5667 39.6495C60.1566 38.4599 62.7466 37.2901 65.2967 36.0212C67.8667 34.7523 70.4368 33.4438 73.0467 32.2145C78.2266 29.7759 83.4662 27.4958 88.6063 24.9778C90.0408 24.2641 91.4553 23.5107 92.9096 22.7969C94.2843 22.1228 95.7586 21.6866 97.2129 21.1712C97.8903 20.9332 98.5876 20.6953 99.2052 20.3384C99.5838 20.1203 99.8627 19.8428 100.201 19.5255C101.078 18.7127 102.054 18.1972 103.269 18.3558C103.807 18.4153 104.286 18.7721 104.286 19.3669C104.286 19.9419 103.827 20.3583 103.269 20.3781C95.8383 20.6557 88.427 21.4685 80.9958 21.8056C77.33 21.9642 73.6443 21.8056 69.9985 22.0435C66.4921 22.2616 63.0454 22.7771 59.5789 23.3322C56.1123 23.8874 52.6458 24.4425 49.1593 24.7598C47.3862 24.9184 45.613 25.0175 43.8399 24.9977C42.1265 24.9977 40.4331 25.0175 38.7397 25.2356C35.4325 25.6718 32.1851 26.5243 28.9178 27.1786C26.1087 27.7337 23.2995 28.0708 20.4307 28.0708C18.3786 28.0708 16.3067 28.0708 14.2546 28.2889C13.3182 28.388 12.342 28.5466 11.3459 28.8242C11.1267 28.8837 10.9275 28.9431 10.7084 29.0225C10.6685 29.0225 10.4095 29.1414 10.4693 29.1216C10.5091 29.1216 10.2701 29.2009 10.2103 29.2405C10.031 29.3198 9.87161 29.419 9.71223 29.5181C9.67239 29.5379 9.45324 29.6966 9.53293 29.6371C9.61262 29.5776 9.41339 29.7362 9.39347 29.756C9.3337 29.8155 9.27393 29.8948 9.19424 29.9543C9.03485 30.1129 9.23408 29.875 9.13447 30.0138C9.03486 30.1526 8.95516 30.3112 8.87547 30.4698V29.4388C9.65246 31.1241 11.6846 31.9766 13.3581 32.6904C15.2508 33.4834 17.1633 34.2368 18.8767 35.4066C20.5502 36.5565 21.9647 38.0435 23.439 39.4314C25.4114 41.2951 27.822 42.5838 29.7944 44.4475C30.6112 45.2207 31.1491 46.212 31.7667 47.1637C32.3246 48.0163 32.8824 48.6507 33.9184 48.8688C35.1934 49.1464 34.6555 51.1092 33.3805 50.8316C31.4679 50.3954 30.4518 48.8886 29.4756 47.3422C28.3798 45.5974 26.6466 44.4673 24.9731 43.2579C23.18 41.9692 21.626 40.4822 20.0322 38.9754C18.7771 37.8056 17.5419 36.8539 16.0078 36.0609C14.3941 35.2282 12.7803 34.6928 11.1068 33.8799C9.55285 33.1265 7.85942 32.0757 7.12228 30.45C6.48475 29.0423 8.49694 27.7536 9.55285 27.2975C11.0072 26.6829 12.5612 26.4252 14.1351 26.2666C17.0837 25.9493 20.0521 26.1674 23.0206 25.989C27.9017 25.6718 32.5835 24.1451 37.3849 23.4115C38.6201 23.2133 39.8753 23.0745 41.1304 22.9952C42.3855 22.9357 43.6407 22.9952 44.8958 22.9754C47.426 22.9357 49.9562 22.6978 52.4465 22.3806C57.4471 21.7263 62.388 20.735 67.4085 20.2393C69.9985 19.9816 72.5486 19.9419 75.1385 19.9419C77.8281 19.9419 80.5177 19.8428 83.2073 19.6842C88.5466 19.3868 93.8858 18.8911 99.2251 18.5739C100.56 18.4946 101.915 18.4351 103.269 18.3756V20.3979C102.791 20.3384 102.512 20.3384 102.214 20.5169C101.955 20.6557 101.696 20.9332 101.397 21.2108C100.5 22.0435 99.5041 22.4995 98.3685 22.9159C97.1333 23.3719 95.8582 23.7288 94.6429 24.2443C93.328 24.7994 92.0729 25.533 90.7978 26.1674C85.7175 28.7052 80.4978 30.9853 75.3378 33.3843C70.1379 35.8031 65.0576 38.44 59.8578 40.8192C55.0763 43.02 50.2351 45.2009 45.8919 48.1947C41.8676 50.9704 37.3451 54.5392 32.1253 53.9047C31.5874 53.8453 31.1093 53.4884 31.1093 52.8936C31.1093 52.3979 31.5874 51.8031 32.1253 51.8824H32.1054Z" fill="#672145"/>
<path d="M104.007 18.9109C102.034 18.9308 100.241 18.4153 98.3684 17.88C97.2727 17.5627 96.2168 17.3843 95.0812 17.3446C93.9257 17.305 92.7502 17.3446 91.5947 17.3248C87.0922 17.186 82.8885 15.1637 78.625 13.8948C76.5331 13.2802 74.4811 12.8638 72.3095 12.7647C70.0184 12.6656 67.7272 12.3087 65.476 11.8923C63.2646 11.476 61.073 10.9605 58.8616 10.5441C56.6701 10.1278 54.4786 9.90969 52.2672 9.63212C47.2865 8.97785 42.2062 7.25294 37.1657 8.38305C37.4247 8.06583 37.6638 7.72878 37.9228 7.41155C37.7037 10.326 39.8354 12.4475 40.9909 14.9456C42.0468 17.2059 42.6844 20.1402 44.8958 21.6073C45.9915 22.3211 44.9555 24.0857 43.8598 23.3521C41.23 21.6073 40.4729 18.6532 39.2178 15.9568C38.5803 14.5888 37.7037 13.3793 36.9864 12.051C36.2095 10.6036 35.7313 9.05715 35.8708 7.39172C35.9106 6.95554 36.1696 6.51936 36.6278 6.42023C41.2499 5.38925 45.8521 6.4797 50.4144 7.29259C52.6656 7.68912 54.9368 7.82791 57.208 8.18479C59.4394 8.54166 61.6309 9.03733 63.8224 9.49334C66.0139 9.94935 68.2054 10.3855 70.4168 10.6036C71.5325 10.7226 72.6482 10.7226 73.7638 10.8217C74.8795 10.9208 75.9753 11.1191 77.0511 11.3769C79.2227 11.8725 81.3146 12.6061 83.4264 13.3199C85.5183 14.0336 87.65 14.787 89.8415 15.1439C92.4315 15.5602 95.1011 15.0646 97.6911 15.5999C98.7669 15.818 99.8029 16.1947 100.859 16.4921C101.915 16.7697 102.951 16.9085 104.046 16.8886C105.361 16.8886 105.361 18.8911 104.046 18.9109H104.007Z" fill="#672145"/>
<path d="M32.0058 48.1954C33.0418 48.1954 33.8984 48.6514 34.5758 49.4048C34.8348 49.7022 35.0739 50.0194 35.3528 50.297C35.4923 50.4358 35.552 50.4754 35.6317 50.5151C35.8907 50.6737 35.4723 50.4754 35.7513 50.5746C35.9306 50.6341 36.0899 50.6737 36.2692 50.6737C37.4447 50.7332 38.64 49.8013 39.6163 49.2462C40.8116 48.5721 42.007 47.8782 43.2223 47.2239C45.6329 45.9153 48.1432 44.8249 50.4742 43.3776C52.7653 41.95 54.9767 40.3639 57.2678 38.9166C59.6187 37.4296 62.0094 35.9624 64.4599 34.6539C65.7151 33.9798 66.9901 33.385 68.2453 32.7109C69.4805 32.0566 70.6958 31.3429 71.911 30.6489C76.6327 27.9723 81.8126 26.188 86.4746 23.3528C87.7496 22.5795 89.0845 21.9451 90.4591 21.3503C91.8338 20.7555 93.2085 20.121 94.6429 19.665C96.8742 18.9315 99.5638 18.7134 101.496 17.2462C101.935 16.9091 102.512 16.8298 102.931 17.2462C103.289 17.6031 103.369 18.3367 102.931 18.6737C101.018 20.1409 98.7071 20.6365 96.416 21.2512C95.2207 21.5684 94.105 22.0244 92.9694 22.4804C91.7342 22.9959 90.499 23.5114 89.3036 24.1062C88.0883 24.7208 86.9328 25.4742 85.7374 26.1285C84.5421 26.7828 83.3069 27.3775 82.0716 27.9525C79.5813 29.1025 77.0511 30.1533 74.6205 31.4618C72.1302 32.7902 69.7195 34.2375 67.2093 35.4866C64.6592 36.7753 62.1887 38.2028 59.7582 39.7295C57.4073 41.1966 55.1162 42.7629 52.7852 44.2896C51.6695 45.0231 50.514 45.7369 49.3386 46.3714C48.0834 47.0455 46.7685 47.6204 45.4935 48.2945C44.1387 49.0083 42.8039 49.7617 41.4691 50.5151C40.1741 51.2487 38.8393 52.2202 37.3849 52.5572C36.0501 52.8745 34.6953 52.5771 33.759 51.5659C33.4601 51.2487 33.2211 50.8918 32.9023 50.5944C32.6035 50.297 32.4242 50.1979 31.9859 50.2177C30.671 50.2177 30.671 48.1954 31.9859 48.1954H32.0058Z" fill="#672145"/>
<path d="M31.5874 52.3194C31.3085 50.4161 30.1729 48.9291 28.7385 47.7197C28.0013 47.105 27.2044 46.5895 26.3876 46.0939C25.3516 45.4396 24.3156 44.7853 23.2597 44.1509C22.2038 43.5164 21.1479 42.9018 20.0721 42.307C19.1955 41.8113 18.4982 41.0778 17.761 40.4037C16.9641 39.6899 15.9879 39.3529 15.0914 38.8175C14.2148 38.3021 13.4577 37.6081 12.6209 37.053C10.7681 35.8237 8.73601 34.654 7.3215 32.9092C6.98281 32.4731 6.90312 31.8981 7.3215 31.4817C7.68011 31.1249 8.41725 31.0455 8.75594 31.4817C10.0111 33.048 11.7842 34.079 13.4378 35.1893C14.2745 35.7444 15.0515 36.4185 15.8883 36.9539C16.8246 37.5486 17.8806 37.9253 18.7572 38.6193C19.5341 39.2339 20.1518 40.027 21.0284 40.5226C22.1241 41.1372 23.2199 41.7519 24.2758 42.4061C26.2083 43.5957 28.2404 44.7258 29.9936 46.1534C31.7468 47.5809 33.2211 49.5239 33.5598 51.8039C33.6395 52.3392 33.4203 52.8944 32.8425 53.053C32.3644 53.1918 31.6671 52.8944 31.5874 52.3392V52.3194Z" fill="#672145"/>
</svg>
