<svg width="367" height="366" viewBox="0 0 367 366" fill="none" xmlns="http://www.w3.org/2000/svg">
<g clip-path="url(#clip0_67_2)">
<mask id="mask0_67_2" style="mask-type:luminance" maskUnits="userSpaceOnUse" x="0" y="0" width="367" height="366">
<path d="M367 0H0V366H367V0Z" fill="white"/>
</mask>
<g mask="url(#mask0_67_2)">
<mask id="mask1_67_2" style="mask-type:luminance" maskUnits="userSpaceOnUse" x="-15" y="0" width="382" height="384">
<path d="M366.718 42.1937L27.5166 0L-15.0004 341.801L324.201 383.995L366.718 42.1937Z" fill="white"/>
</mask>
<g mask="url(#mask1_67_2)">
<path d="M185.5 44L183.5 52L169.5 49.5L139.5 48L113.5 50.5L80.5 56.5L52.5 67L33.5 79L22 91L15 106L16 124L25.5 146L38 165L53.5 176.5H57L59.5 174H63V170.5C63 169.7 62.3333 168.167 62 167.5L68 170.5L70 169.5V163.5C67.3333 158.333 62 147.9 62 147.5C62 147 57.5 135.5 57 134.5C56.6 133.7 56.1667 129.167 56 127C58 125.5 62.2 122.4 63 122C64 121.5 72.5 120 73 120C73.4 120 97.1667 117.333 109 116L107 131L101 175L95.5 213L91 238C89.6667 240.5 87 245.6 87 246C87 246.4 86.3333 251.167 86 253.5L75 260.5L55.5 265L50 268V282.5L52 297L59.5 306.5C60 306.167 61 305.4 61 305C61 304.5 62.5 300.5 63 300L67.5 295.5H73.5H105.5C107.5 295.5 116 292.833 120 291.5L141 280L149.5 272L158 265L162.5 274L163.5 287L168.5 302.5L174.5 323.5L179.5 346L183 360.5L189 365.5L213.5 364.5V360.5L206.5 354.5L203.5 349.5V344.5L212 308.5L219.5 274.5L232 223L241 182L246.5 153.5L258 163.5L271.5 169L282 171H303L312 168.5L321.5 165.5C323 163.833 326.1 160.4 326.5 160C326.9 159.6 331.667 153.167 334 150L354 119L357 114H349.5V112.5L355.5 109L354 106.5L349.5 106L354 103L353 100L346 99.5L351.5 96.5L353.5 94C352.833 93.6667 351.3 93 350.5 93C349.7 93 343.833 93.6667 341 94L331 97.5L323 104L303 121L293 124L284 124.5L271 118L253 102.5L239.5 86L230 77.5L210.5 64L211.5 61L214 53.5L213 44C212.667 42.1667 211.9 38.3 211.5 37.5C211.1 36.7 212.333 36.1667 213 36L215.5 34.5L216.5 33L215.5 31.5V30.5L218.5 28.5L216.5 27H214L207.5 29L205 31.5L203.5 29.5L209 26.5L210.5 24.5L208 23L204.5 24C203.333 23.6667 200.6 23 199 23C197.4 23 191.667 26.6667 189 28.5L187.5 33L189 36L185.5 44Z" fill="#E4DDCC"/>
<path d="M248.811 133.068C247.783 145.532 244.749 157.698 242.44 169.955C241.839 173.07 241.311 176.17 240.85 179.302C240.64 180.799 240.48 182.279 240.106 183.756C239.688 185.394 239.291 187.058 238.897 188.699C237.399 194.821 235.901 200.942 234.447 207.093C228.508 231.918 222.8 256.796 217.045 281.668C214.128 294.23 211.188 306.789 208.204 319.318C206.712 325.583 205.199 331.822 203.684 338.084C203.012 340.809 202.098 343.575 202.149 346.414C202.196 348.896 203.028 351.57 204.526 353.47C206.042 355.42 207.89 356.983 209.765 358.525C210.757 359.339 211.565 360.106 212.127 361.318C212.782 362.733 212.25 363.571 211.201 364.559C208.055 367.5 203.73 367.319 199.899 366.605C197.878 366.234 195.903 365.679 193.9 365.168C192.955 364.932 192.037 364.675 191.089 364.462C190.075 364.216 189.302 363.549 188.398 362.984C187.316 362.326 186.269 361.767 185.368 360.798C184.511 359.859 183.77 358.743 183.176 357.598C182.044 355.434 181.268 353.076 180.589 350.707C179.818 347.921 179.501 344.93 178.93 342.074C178.318 338.975 177.849 335.87 177.163 332.786C175.81 326.667 174.36 320.559 172.91 314.452C170.037 302.408 167.09 290.378 164.735 278.184C163.952 274.159 163.663 267.887 160.045 265.461C158.509 264.437 156.24 264.345 154.55 265.134C152.559 266.053 151.103 268.014 149.788 269.802C146.561 274.161 142.684 277.821 138.161 280.567C135.615 282.13 132.989 283.565 130.422 285.103C127.884 286.596 125.343 287.922 122.656 289.088C117.411 291.339 111.826 293.453 106.241 294.424C100.532 295.428 94.774 295.497 89.0538 295.262C83.1931 295.009 77.3675 294.475 71.501 294.269C69.489 294.209 67.5355 294.251 65.7491 295.433C64.3224 296.399 63.311 297.844 62.522 299.412C61.6366 301.182 61.1577 303.122 60.3834 304.954C59.9422 306.017 58.9947 305.995 58.1376 305.436C56.9296 304.643 56.4025 302.959 55.8318 301.626C53.6541 296.595 52.1081 291.261 51.3691 285.742C50.6272 280.247 50.707 274.639 51.6056 269.134C52.1046 266.078 55.9326 265.863 58.231 265.34C60.8218 264.758 63.4506 264.252 66.0415 263.67C71.074 262.558 76.1795 261.051 80.6293 258.129C84.5617 255.548 87.8591 251.769 90.0625 247.425C92.4266 242.744 93.0388 237.632 93.8236 232.469C94.8008 225.949 95.7576 219.404 96.6647 212.876C100.267 187.165 103.495 161.407 107.378 135.731C108.314 129.54 109.297 123.354 110.327 117.175C110.523 115.985 108.792 115.77 108.596 116.959C104.269 142.961 100.877 169.079 97.3425 195.203C95.5751 208.265 93.758 221.345 91.7801 234.381C91.3717 237.091 91.0364 239.787 90.2127 242.398C89.4678 244.757 88.451 247.01 87.1036 249.056C84.1341 253.638 79.927 256.899 75.1317 258.969C70.161 261.111 64.8711 262.001 59.6748 263.092C58.356 263.38 57.0372 263.668 55.7125 264.003C54.5107 264.306 53.2708 264.533 52.1861 265.231C49.8881 266.706 49.7545 269.118 49.4571 271.699C48.2009 282.944 50.3575 294.257 55.0315 304.24C55.9153 306.112 57.5069 308.023 59.7147 307.655C61.7032 307.331 62.1381 305.172 62.7312 303.46C63.3826 301.661 64.0663 299.794 65.2267 298.296C66.5801 296.584 68.3813 296.047 70.3963 296.083C82.0121 296.29 93.6023 298.232 105.227 296.464C110.724 295.625 116.195 293.663 121.397 291.573C124.198 290.446 126.944 289.192 129.581 287.664C132.192 286.156 134.768 284.548 137.399 283.067C141.893 280.555 145.933 277.297 149.312 273.242C150.958 271.281 152.308 268.831 154.346 267.346C156.045 266.106 158.533 266.154 159.911 267.872C161.266 269.588 161.767 272.054 162.163 274.222C162.746 277.365 163.355 280.487 163.988 283.613C165.262 289.793 166.68 295.968 168.127 302.099C171.006 314.287 174.318 326.433 176.487 338.795C177.026 341.909 177.735 344.996 178.248 348.13C178.67 350.658 179.32 353.072 180.213 355.444C181.074 357.693 182.177 359.902 183.713 361.687C184.441 362.516 185.199 363.3 186.132 363.821C187.267 364.438 188.3 365.305 189.435 365.922C190.213 366.352 191.204 366.404 192.055 366.629C193.114 366.903 194.149 367.175 195.208 367.449C197.232 367.987 199.285 368.48 201.367 368.739C205.134 369.208 209.196 368.832 212.207 366.017C213.9 364.443 214.695 362.637 213.618 360.409C212.503 358.104 210.516 356.881 208.697 355.274C206.64 353.471 204.847 351.463 204.132 348.613C203.453 345.862 204.13 343.281 204.793 340.626C207.923 327.876 210.963 315.092 213.959 302.278C219.874 277.069 225.629 251.816 231.544 226.607C234.508 214.051 237.498 201.474 240.579 188.932C240.955 187.432 241.309 185.929 241.682 184.452C242.077 182.811 242.298 181.22 242.552 179.561C243.013 176.429 243.541 173.329 244.142 170.214C245.324 163.959 246.691 157.749 247.896 151.496C249.046 145.498 250.038 139.433 250.536 133.33C250.638 132.129 248.907 131.914 248.805 133.115L248.811 133.068Z" fill="#672145"/>
<path d="M140.914 48.9052C148.991 49.2911 157.054 49.9846 165.056 51.1703C172.987 52.3474 180.86 53.9932 188.582 56.2866C195.73 58.4135 202.755 61.144 209.436 64.5457C216.003 67.9094 222.148 71.9824 227.926 76.7237C233.142 81.0143 238.296 85.7972 241.691 91.9321C242.077 92.6466 242.437 93.3816 242.794 94.1401C243.277 95.2237 244.891 94.4724 244.408 93.3888C241.446 86.8317 236.484 81.6444 231.271 77.1399C225.631 72.2491 219.582 67.9738 213.135 64.4108C206.443 60.722 199.417 57.8011 192.202 55.4516C184.527 52.9735 176.628 51.1578 168.69 49.8372C160.589 48.4963 152.424 47.671 144.238 47.2003C143.2 47.1425 142.185 47.0877 141.147 47.03C140.036 46.9869 139.782 48.8358 140.914 48.9052Z" fill="#672145"/>
<path d="M140.657 46.5877C133.641 47.405 126.606 48.196 119.608 49.0631C111.984 49.9952 104.375 51.0006 96.7807 52.2695C89.2624 53.5004 81.8174 55.0974 74.4633 57.3007C66.0712 59.8272 57.8723 63.0918 50.0745 67.3346C43.069 71.1285 36.2421 75.5873 30.2432 81.0297C24.487 86.2406 19.4155 92.6315 16.7337 100.248C13.8912 108.392 14.1139 117.298 16.1816 125.506C18.3166 133.936 22.1476 141.719 26.4346 149.084C30.8591 156.68 35.7194 164.211 42.1202 170.054C45.4288 173.06 49.1525 175.594 53.2853 177.131C54.2622 177.491 55.2478 177.78 56.2335 178.069C56.9442 178.277 57.6256 178.338 58.1956 177.766C59.5755 176.414 59.2762 173.854 58.8223 172.155C58.2806 170.207 57.0517 168.626 55.3874 167.681C54.7644 167.342 54.1066 168.046 54.1683 168.696C54.3708 170.697 55.3833 172.489 56.846 173.718C58.0922 174.778 59.9349 175.626 61.5637 175.519C62.3065 175.468 63.2364 175.251 63.7216 174.597C64.2302 173.946 64.1304 172.839 64.1359 172.03C64.1147 169.909 63.3273 168.026 62.1803 166.36C61.7272 166.756 61.2507 167.149 60.8004 167.521C61.052 167.791 61.3036 168.06 61.5289 168.35C61.5904 168.429 61.6489 168.531 61.7132 168.587C61.7132 168.587 61.7542 168.64 61.7513 168.663C61.6518 168.508 61.6049 168.312 61.6312 168.101C61.9498 167.831 62.2948 167.541 62.6135 167.271C62.9469 167.455 63.061 167.493 62.9323 167.382C62.9118 167.356 62.8884 167.353 62.9323 167.382C62.8942 167.306 62.786 167.221 62.748 167.145C62.5431 166.881 62.3647 166.597 62.1598 166.334L60.9233 167.68C62.351 169.19 64.1003 170.598 66.13 170.898C67.8789 171.163 70.1538 170.446 70.6911 168.419C71.2986 166.209 70.1163 163.872 69.3084 161.963C68.3191 159.602 67.3064 157.239 66.32 154.855C64.3589 150.184 62.4241 145.492 60.4659 140.797C59.4795 138.413 58.4697 136.026 57.4569 133.663C57.015 132.632 56.7368 131.621 56.5931 130.485C56.4552 129.492 56.4579 128.707 56.9488 127.816C59.1758 123.856 64.0476 123.081 67.8373 122.22C72.4575 121.176 77.0924 120.396 81.7596 119.738C91.1172 118.427 100.522 117.693 109.909 116.528C112.298 116.23 114.69 115.908 117.065 115.537C118.229 115.349 119.389 114.993 120.521 114.682C121.676 114.373 122.834 114.041 123.992 113.709C126.331 113.048 128.633 112.311 130.945 111.48C131.516 111.289 132.086 111.098 132.638 110.857C133.118 110.631 133.501 110.227 133.922 109.898C134.714 109.259 135.568 108.699 136.509 108.387C136.758 108.299 137.021 108.284 137.249 108.17C137.477 108.056 137.694 107.844 137.904 107.68C138.354 107.308 138.819 107.009 139.346 106.788C140.419 106.374 139.731 104.646 138.681 105.063C138.181 105.263 137.745 105.518 137.301 105.844C137.091 106.008 136.877 106.196 136.667 106.36C136.485 106.48 136.289 106.527 136.041 106.615C135.076 106.924 134.178 107.455 133.342 108.065C132.977 108.329 132.632 108.619 132.287 108.909C131.81 109.302 131.196 109.464 130.626 109.655C129.48 110.084 128.313 110.486 127.129 110.839C124.877 111.558 122.588 112.202 120.301 112.822C119.146 113.13 118.006 113.512 116.845 113.677C115.681 113.866 114.497 114.028 113.336 114.193C104.054 115.466 94.7193 116.209 85.4288 117.362C80.7968 117.929 76.1735 118.615 71.5708 119.518C69.2811 119.971 67.0325 120.477 64.7779 121.03C62.7193 121.535 60.769 122.126 58.9358 123.302C57.3336 124.341 55.9216 125.76 55.1239 127.589C54.6973 128.535 54.7415 129.517 54.853 130.53C54.985 131.57 55.1814 132.666 55.559 133.641C56.4752 136.016 57.5406 138.339 58.5328 140.676C59.5251 143.013 60.491 145.37 61.4598 147.704C63.38 152.323 65.3001 156.942 67.2436 161.563C67.7383 162.743 68.3733 163.941 68.7686 165.156C69.0116 165.877 69.2723 167.028 69.0796 167.813C68.8489 168.713 67.7699 168.983 67.03 169.01C66.1468 169.043 65.2635 168.695 64.5147 168.221C63.5874 167.654 62.7771 166.91 62.0457 166.105C61.3114 165.324 60.2708 166.622 60.8092 167.451C61.1486 167.969 61.7046 169.038 62.389 169.076C62.8861 169.09 63.2808 168.782 63.3713 168.246C63.5114 167.502 62.5869 166.72 62.1891 166.29C61.4138 165.456 60.1245 166.461 60.8092 167.451C61.6548 168.675 62.2723 170.013 62.4104 171.578C62.4397 171.915 62.4457 172.249 62.4283 172.58C62.402 172.791 62.4021 172.981 62.3759 173.192C62.3671 173.262 62.3584 173.333 62.3496 173.403C62.3088 173.731 62.3146 173.684 62.4578 173.297C62.4578 173.297 62.0309 173.482 61.9812 173.5C61.7122 173.562 61.3963 173.618 61.1185 173.559C58.5595 173.122 56.2046 171.234 55.8994 168.34C55.5018 168.671 55.1013 169.026 54.6803 169.355C56.2803 170.244 57.1466 172.065 57.3666 173.926C57.4282 174.386 57.443 174.84 57.3642 175.282C57.3321 175.54 57.2592 176.126 57.0019 176.284C57.1043 176.226 56.844 176.217 56.7299 176.179C56.2473 176.048 55.7443 175.89 55.2646 175.735C51.1963 174.443 47.4873 172.173 44.205 169.337C37.8745 163.884 33.1168 156.675 28.7479 149.396C24.5371 142.374 20.7325 134.95 18.4017 126.948C16.1383 119.169 15.3981 110.603 17.7201 102.632C19.8814 95.1887 24.4441 88.8773 29.8143 83.7137C35.3746 78.3595 41.7862 73.9919 48.3618 70.2159C55.7795 65.9734 63.5865 62.6125 71.5867 59.9896C78.7945 57.6253 86.1634 55.876 93.5734 54.5603C100.764 53.2887 107.993 52.2837 115.21 51.3724C122.284 50.4672 129.37 49.6586 136.435 48.8236C137.906 48.6495 139.4 48.4784 140.871 48.3043C142.003 48.1833 141.759 46.3202 140.627 46.4412L140.657 46.5877Z" fill="#672145"/>
<path d="M240.397 89.7233C240.597 91.1763 241.887 92.4555 242.782 93.4713C244.301 95.2074 245.954 96.8174 247.586 98.401C249.136 99.8792 250.69 101.334 252.264 102.815C252.752 103.28 253.264 103.749 253.729 104.211C253.814 104.293 253.876 104.372 253.963 104.431C253.987 104.434 254.048 104.513 253.94 104.428C253.77 104.264 254.045 104.536 254.045 104.536C254.256 104.753 254.467 104.969 254.674 105.209C255.344 105.935 256.041 106.641 256.74 107.323C259.528 110.121 262.488 112.679 265.531 115.153C268.532 117.573 271.615 119.908 274.973 121.754C279.621 124.308 284.888 125.701 290.176 125.407C294.387 125.169 298.504 123.777 302.275 121.723C306.176 119.59 309.775 116.824 313.222 113.944C316.774 110.982 320.229 107.842 323.819 104.956C327.33 102.132 331.032 99.4979 335.067 97.6195C337.058 96.7009 339.099 95.955 341.225 95.4816C342.277 95.2317 343.36 95.1283 344.427 94.9516C345.614 94.7661 346.801 94.3901 347.994 94.1576C349.065 93.9575 350.383 93.6693 351.442 94.1343C351.647 94.2074 351.822 94.3244 351.969 94.4854C352.01 94.5381 352.092 94.6435 352.106 94.7167C352.106 94.7167 352.071 94.6172 352.098 94.7871C352.109 94.6933 352.071 94.6172 352.098 94.7871C352.168 94.6054 352.103 94.7402 352.095 94.8105C352.092 94.8339 352.004 94.9659 352.095 94.8105C352.089 94.8574 352.036 94.8984 352.007 94.9424C351.609 95.4642 350.788 95.9571 350.101 96.3239C349.212 96.7846 348.305 97.1955 347.42 97.6327C346.814 97.9145 346.11 98.2315 345.683 98.7973C345.399 99.1666 345.455 99.8639 345.83 100.101C347.21 101.034 348.889 101.481 350.547 101.14C351.108 101.019 351.67 100.708 352.24 100.708C352.693 100.693 352.887 101.24 353.001 101.659C353.036 101.759 353.062 102.119 353.048 102.046C353.036 102.14 353.024 102.233 353.013 102.327C353.033 102.163 352.978 102.418 352.948 102.462C352.948 102.462 352.805 102.658 352.779 102.679C352.668 102.808 352.457 102.972 352.355 103.031C351.709 103.45 350.814 103.767 350.08 104.128C349.221 104.545 348.294 105.12 347.978 106.128C347.783 106.746 348.096 107.285 348.675 107.405C349.968 107.709 351.286 107.23 352.558 107.126C353.038 107.091 353.561 107.084 353.948 107.418C354.164 107.588 354.278 107.816 354.389 108.068C354.389 108.068 354.501 108.32 354.445 108.194C354.407 108.118 354.445 108.194 354.439 108.241C354.471 108.364 354.474 108.15 354.428 108.335C354.422 108.382 354.489 108.223 354.422 108.382C354.325 108.584 354.448 108.361 354.36 108.493C354.217 108.689 354.162 108.754 354.056 108.836C353.708 109.15 353.34 109.437 352.954 109.675C352.024 110.273 351.062 110.749 350.156 111.35C349.355 111.869 348.411 112.585 348.3 113.666C348.247 114.088 348.461 114.472 348.821 114.635C349.473 114.931 350.207 114.951 350.897 114.941C351.778 114.932 352.664 114.875 353.547 114.842C354.263 114.812 354.933 114.777 355.679 114.893C355.749 114.902 355.842 114.914 355.913 114.922C356.144 114.975 355.725 114.899 355.959 114.928C356.03 114.937 356.073 114.966 356.141 114.998C355.939 114.902 356.053 114.94 356.117 114.995C356.249 115.083 356.038 114.867 356.056 114.916C355.93 114.591 356.041 115.034 356.012 114.697C356.003 114.767 356.1 114.565 356.003 114.767C355.907 114.969 355.997 114.814 355.851 115.034C355.679 115.274 355.509 115.491 355.34 115.708C354.834 116.335 354.352 116.966 353.867 117.619C352.952 118.862 352.084 120.111 351.236 121.386C349.509 124.004 347.869 126.68 346.273 129.385C343.14 134.708 340.115 140.116 336.57 145.126C332.966 150.224 328.795 154.727 323.895 158.402C314.431 165.532 303.22 169.326 291.801 170.024C283.086 170.559 274.347 169.377 266.126 166.331C262.218 164.893 258.41 163.038 255.078 160.41C252.135 158.092 249.569 155.036 248.527 151.193C248.284 150.282 248.14 149.336 248.09 148.401C248.002 147.2 246.279 147.486 246.344 148.684C246.971 157.974 255.105 163.627 262.356 166.838C270.397 170.385 279.147 172.045 287.894 172.014C299.756 171.966 311.522 168.86 321.767 162.136C327.071 158.654 331.766 154.335 335.753 149.214C339.655 144.201 342.887 138.652 346.117 133.127C349.349 127.578 352.628 122.035 356.554 117.025C357.092 116.331 357.837 115.495 357.723 114.505C357.614 113.658 356.906 113.237 356.213 113.079C354.666 112.72 352.821 113.038 351.321 113.066C350.94 113.066 350.56 113.066 350.16 113.04C349.996 113.02 349.832 113 349.692 112.982C349.458 112.953 349.858 112.979 349.645 112.976C349.598 112.971 349.507 112.935 349.464 112.906C349.636 113.237 349.809 113.568 349.984 113.876C350.008 113.688 349.987 113.852 349.99 113.829C350.063 113.624 349.935 113.893 350.022 113.761C350.169 113.541 350.136 113.609 350.353 113.398C350.724 113.087 351.11 112.849 351.496 112.612C352.522 112.001 353.563 111.464 354.531 110.752C355.344 110.139 356.215 109.247 356.144 108.096C356.07 106.587 354.786 105.452 353.479 105.265C351.938 105.05 350.385 105.88 348.861 105.524C349.092 105.957 349.324 106.391 349.558 106.801C349.564 106.754 349.663 106.528 349.631 106.596C349.599 106.663 349.716 106.487 349.742 106.467C349.771 106.423 349.824 106.382 349.876 106.34C349.955 106.279 350.034 106.217 350.113 106.156C350.347 105.994 350.803 105.765 351.18 105.598C352.037 105.205 352.982 104.87 353.724 104.248C354.522 103.562 354.958 102.545 354.761 101.45C354.5 99.9179 353.5 98.6033 351.953 98.8155C351.228 98.9157 350.541 99.2825 349.801 99.3095C348.771 99.3718 347.8 99.1559 346.923 98.5706C346.964 99.0042 347.028 99.4407 347.069 99.8742C347.151 99.7892 346.912 99.9974 347.017 99.9153C347.067 99.8977 347.122 99.8332 347.175 99.7921C347.33 99.6924 347.151 99.7892 347.175 99.7921C347.251 99.754 347.33 99.6924 347.406 99.6542C347.789 99.44 348.166 99.2727 348.546 99.082C349.455 98.6476 350.385 98.2397 351.28 97.7321C352.712 96.9106 354.794 95.2653 353.416 93.3563C351.813 91.1574 348.421 92.0684 346.265 92.5858C344.11 93.1032 341.9 93.3043 339.759 93.8949C335.405 95.0909 331.361 97.23 327.569 99.8289C323.751 102.448 320.237 105.486 316.723 108.524C313.238 111.518 309.771 114.562 306.046 117.193C302.558 119.639 298.781 121.74 294.731 122.784C290.362 123.906 285.867 123.752 281.583 122.481C274.689 120.41 268.841 115.66 263.347 110.93C259.29 107.45 255.674 103.477 251.76 99.8008C250.057 98.2085 248.357 96.5927 246.71 94.9359C245.338 93.5513 243.946 92.1403 242.79 90.5446C242.688 90.4128 242.588 90.2576 242.489 90.1024C242.448 90.0497 242.41 89.9736 242.369 89.9209C242.249 89.7394 242.407 89.997 242.328 89.8682C242.269 89.7657 242.234 89.6661 242.178 89.5402C242.044 89.2854 242.164 89.6574 242.146 89.4172C241.985 88.2308 240.239 88.5135 240.4 89.6999L240.397 89.7233Z" fill="#672145"/>
<path d="M183.563 51.9495C184.137 47.3318 186.007 42.8039 188.524 38.9991C190.979 35.3056 194.455 31.8106 198.768 31.1332C202.792 30.4912 206.746 32.5064 209.128 35.897C211.551 39.3404 212.538 43.819 212.744 48.0816C212.992 52.7776 212.344 57.7909 210.34 62.064C210.577 61.8793 210.793 61.6681 211.03 61.4834C210.813 61.5041 210.574 61.5218 210.357 61.5425C209.231 61.6167 209.475 63.4798 210.601 63.4056C210.817 63.3849 211.057 63.3671 211.273 63.3464C211.586 63.314 211.832 63.0589 211.963 62.7658C213.874 58.6714 214.557 53.9482 214.526 49.4219C214.501 44.6582 213.569 39.7342 211.169 35.7225C208.831 31.7899 204.768 29.1184 200.323 29.1368C195.474 29.1525 191.305 32.2995 188.298 36.2336C185.24 40.1854 183.04 45.0769 182.059 50.0962C181.942 50.653 181.852 51.1892 181.782 51.7517C181.633 52.9472 183.365 53.1625 183.513 51.9671L183.563 51.9495Z" fill="#672145"/>
<path d="M226.04 241.821C225.172 242.118 224.265 242.148 223.356 242.201C222.329 242.24 221.309 242.423 220.297 242.535C218.101 242.809 215.911 243.037 213.703 243.214C209.31 243.572 204.892 243.761 200.496 243.761C191.729 243.766 182.999 243.084 174.34 241.841C165.68 240.597 157.055 238.881 148.647 236.383C140.352 233.923 132.262 230.775 124.087 227.925C115.933 225.102 107.629 222.522 99.0836 221.316C98.0074 221.182 96.9545 221.051 95.8783 220.917C94.7524 220.801 94.5191 222.676 95.645 222.792C104.278 223.676 112.681 226.03 120.888 228.813C129.165 231.604 137.34 234.834 145.69 237.42C154.108 240.038 162.759 241.923 171.474 243.293C180.189 244.663 189.022 245.476 197.845 245.597C202.231 245.667 206.641 245.549 211.025 245.261C213.277 245.113 215.508 244.938 217.748 244.693C219.818 244.475 221.906 244.116 223.985 244.017C224.918 243.967 225.816 243.816 226.708 243.523C227.796 243.182 227.108 241.454 226.043 241.798L226.04 241.821Z" fill="#672145"/>
<path d="M59.5467 265.836C59.57 265.649 59.5933 265.461 59.6195 265.25C59.7478 264.028 58.1305 263.851 57.8882 265.035C57.5146 266.892 58.4423 268.793 59.1974 270.363C60.0988 272.284 60.7517 274.293 61.5274 276.27C62.4027 278.593 63.3248 280.921 64.124 283.282C64.4548 284.251 64.7359 285.238 65.1662 286.172C65.5554 287.054 66.1026 287.812 66.5971 288.612C67.1063 289.484 67.2617 290.527 67.4697 291.529C67.6923 292.604 68.0144 293.644 68.6698 294.487C69.3632 295.406 70.7665 294.248 70.0497 293.325C69.011 291.935 69.1155 289.948 68.457 288.367C68.0882 287.512 67.4855 286.818 67.0641 286.004C66.6602 285.239 66.3792 284.443 66.101 283.623C65.3194 281.312 64.4851 279.042 63.604 276.766C63.1707 275.665 62.7638 274.543 62.3569 273.422C62.0407 272.525 61.7509 271.609 61.3382 270.724C60.908 269.79 60.4309 268.85 60.0533 267.875C59.7284 267.049 59.459 266.158 59.6429 265.253L57.9116 265.038C57.8883 265.225 57.865 265.413 57.8387 265.624C57.7134 266.822 59.4681 267.04 59.57 265.839L59.5467 265.836Z" fill="#672145"/>
<path d="M182.63 351.673C183.387 350.934 184.747 351.079 185.756 351.181C187.14 351.329 188.476 351.662 189.821 351.925C193.65 352.663 197.565 351.936 201.387 351.578C202.516 351.481 202.273 349.618 201.144 349.715C197.252 350.064 193.412 350.753 189.566 349.965C188.154 349.67 186.744 349.352 185.329 349.271C184.077 349.211 182.577 349.238 181.553 350.206C180.714 351.03 181.768 352.494 182.607 351.67L182.63 351.673Z" fill="#672145"/>
<path d="M26.4773 147.969C28.4515 148.524 30.0827 147.061 31.5679 145.818C33.2928 144.366 35.2869 143.424 37.3541 142.657C39.5472 141.835 41.7548 141.086 43.9215 140.285C46.0414 139.477 48.2842 138.828 50.5213 138.607C51.8928 138.468 53.2119 138.941 54.5805 138.826C55.876 138.725 57.1011 138.235 58.3909 138.562L58.6242 136.687C58.437 136.663 58.2732 136.643 58.086 136.62C56.963 136.48 56.7327 138.332 57.8528 138.495C58.04 138.518 58.2037 138.539 58.3909 138.562C59.5373 138.705 59.6829 136.961 58.6242 136.687C57.5157 136.43 56.4221 136.627 55.305 136.821C54.7231 136.916 54.1645 137.013 53.5796 136.94C52.9245 136.858 52.2519 136.727 51.5909 136.693C49.3713 136.583 47.0232 137.314 44.8945 138.002C42.7424 138.686 40.6371 139.567 38.5026 140.301C36.3183 141.053 34.1516 141.854 32.1401 143.128C31.2366 143.706 30.4327 144.439 29.5878 145.119C28.9797 145.615 27.9711 146.465 27.1668 146.246C26.7076 146.117 26.2164 146.247 26.0089 146.768C25.8365 147.199 26.0152 147.864 26.4744 147.993L26.4773 147.969Z" fill="#672145"/>
<path d="M320.732 108.192C321.32 109.193 321.476 110.426 321.69 111.572C321.895 112.787 322.153 113.962 322.606 115.089C323.672 117.793 325.027 120.27 326.554 122.698C328.064 125.075 329.697 127.421 331.607 129.443C332.552 130.442 333.561 131.305 334.623 132.127C335.621 132.894 336.607 133.755 337.666 134.41C338.569 134.975 339.552 135.287 340.52 135.717C341.31 136.053 342.208 136.475 342.498 137.391C342.72 136.943 342.963 136.521 343.185 136.072C342.992 136.096 342.819 136.146 342.626 136.17C341.509 136.364 341.752 138.227 342.87 138.033C343.063 138.009 343.235 137.959 343.428 137.936C344.013 137.818 344.302 137.211 344.115 136.617C343.485 134.61 341.28 134.003 339.657 133.301C338.709 132.897 337.951 132.303 337.127 131.677C336.041 130.852 334.953 130.05 333.926 129.137C331.832 127.258 330.155 124.883 328.572 122.52C327.033 120.186 325.646 117.776 324.548 115.141C324.001 113.811 323.638 112.528 323.392 111.069C323.143 109.634 322.864 108.243 322.141 106.986C321.887 106.55 321.27 106.545 320.925 106.835C320.527 107.166 320.504 107.735 320.761 108.148L320.732 108.192Z" fill="#672145"/>
<path d="M186.191 37.1133C187.452 37.2939 188.715 37.6415 190.02 37.6609C191.16 37.66 192.26 37.4159 193.336 36.9785C195.435 36.1447 197.341 34.7632 199.215 33.4492C201.373 31.9562 203.51 30.4368 205.767 29.099C207.411 28.1133 209.405 27.5521 210.831 26.2062C211.179 25.8924 211.641 25.4262 211.702 24.934C211.755 24.512 211.506 24.0288 211.26 23.7126C210.792 23.0831 210.043 22.7996 209.327 22.639C207.891 22.3414 206.271 22.5683 204.847 22.9387C203.054 23.406 201.361 24.4093 199.745 25.3745C198.101 26.3603 196.561 27.4777 195.058 28.6714C193.766 29.7008 192.368 30.8123 191.389 32.19C190.986 32.7587 190.612 33.4739 190.615 34.2122C190.624 34.9036 191.142 35.325 191.712 35.515C192.762 35.8598 193.935 35.601 194.949 35.275C196.379 34.8578 197.759 34.2678 199.125 33.6045C200.441 32.9589 201.742 32.2401 202.981 31.4422C203.885 30.8643 204.838 30.2687 205.621 29.5093C206.65 28.4948 207.299 26.7189 206.813 25.2779C206.312 23.7636 204.762 23.0471 203.402 22.7113C201.744 22.2908 199.881 22.3686 198.208 22.827C196.41 23.3412 194.919 24.441 193.302 25.4062C191.685 26.3714 190.001 27.3045 188.598 28.6533C187.519 29.6854 186.479 31.1746 186.751 32.8033C187.194 35.3576 190.165 36.108 192.163 36.4755C194.88 36.9801 197.684 36.9719 200.442 36.7675C201.305 36.7082 202.167 36.6489 203.021 36.4695C205.387 35.9783 207.679 34.9305 209.855 33.8681C211.398 33.108 212.901 32.2953 214.504 31.6377C215.781 31.1064 217.343 30.5865 218.331 29.5193C219.179 28.625 219.105 26.9259 218.18 26.1444C217.253 25.3864 215.879 25.5487 214.806 25.7722C212.662 26.1959 210.513 27.0472 208.516 28.0128C206.142 29.1456 201.408 32.2462 203.945 35.5371C205.376 37.405 207.818 38.0182 209.985 37.7879C211.695 37.5961 213.368 36.9472 214.92 36.1168C216.143 35.4596 217.979 34.4502 218.274 32.8445C218.656 30.7261 216.138 30.5318 214.86 31.2536C212.106 32.7676 210.827 37.8927 214.29 39.2756C216.258 40.0679 218.51 38.9674 219.977 37.4837C220.793 36.6569 219.743 35.1695 218.924 36.0198C218.003 36.9287 216.702 37.838 215.418 37.6545C214.389 37.5265 213.871 36.7242 213.941 35.7807C214.066 34.2015 215.46 32.1613 217.007 32.9012L216.545 32.4153C216.545 32.4153 216.58 32.5149 216.609 32.4709C216.563 32.6555 216.507 32.72 216.341 32.9135C216.034 33.28 215.566 33.6026 215.177 33.8637C214.402 34.3624 213.592 34.7615 212.762 35.1343C211.329 35.7653 209.738 36.1387 208.2 35.8998C207.428 35.8037 206.708 35.4762 206.077 35.0167C205.685 34.73 205.211 34.3378 205.085 33.8223C205.006 33.503 205.064 33.2246 205.251 32.867C205.47 32.4421 205.827 32.058 206.175 31.7442C207.061 30.9261 208.087 30.3159 209.125 29.8023C210.414 29.1772 211.765 28.6312 213.104 28.1789C213.923 27.8999 214.809 27.6531 215.678 27.5469C216.113 27.4821 216.28 27.479 216.681 27.505C216.751 27.5138 216.845 27.5254 216.915 27.5341C217.078 27.5545 216.824 27.4991 216.961 27.54C217.032 27.5487 217.099 27.5809 217.143 27.6101C217.254 27.6715 217.061 27.5047 217.184 27.6628C217.204 27.6892 217.105 27.534 217.184 27.6628C217.204 27.6892 217.131 27.5134 217.184 27.6628C217.234 27.8356 217.184 27.6628 217.178 27.7097C217.169 27.78 217.19 27.9968 217.187 27.8298C217.175 27.9236 217.163 28.0173 217.152 28.1111C217.163 28.0173 217.073 28.1727 217.123 28.1551C217.175 28.114 216.988 28.2811 216.938 28.2988C216.172 28.9176 215.175 29.2934 214.298 29.6603C213.52 29.992 212.725 30.2739 211.939 30.676C210.339 31.5005 208.763 32.328 207.132 33.0295C205.12 33.9218 203.114 34.5768 200.973 34.7866C199.172 34.9434 197.409 34.9858 195.593 34.8789C193.75 34.7926 191.849 34.6037 190.2 33.9225C190.018 33.8523 189.86 33.7851 189.705 33.6944C189.483 33.5715 189.436 33.5657 189.305 33.4779C189.173 33.3901 189.044 33.2789 188.936 33.194C188.892 33.1648 188.766 33.0301 188.872 33.1384C188.807 33.0828 188.769 33.0067 188.705 32.9511C188.664 32.8984 188.623 32.8457 188.585 32.7695C188.567 32.7197 188.64 32.8954 188.567 32.7197C188.553 32.6465 188.512 32.5938 188.497 32.5206C188.427 32.3214 188.488 32.5909 188.482 32.4473C188.491 32.377 188.453 32.3009 188.462 32.2306C188.435 32.0607 188.444 32.3712 188.468 32.1837C188.491 31.9962 188.511 31.8321 188.558 31.6475C188.935 30.528 189.987 29.7068 190.876 29.0557C191.899 28.2785 192.999 27.6536 194.101 27.0052C195.23 26.3363 196.279 25.5385 197.461 25.019C198.694 24.4584 200.028 24.2434 201.353 24.2892C202.324 24.3148 203.3 24.4839 204.149 24.9226C204.842 25.2707 205.301 25.7801 205.187 26.5038C205.123 27.0195 204.849 27.509 204.559 27.9252C204.553 27.9721 204.504 27.9897 204.474 28.0337C204.609 27.9076 204.387 28.1656 204.474 28.0337C204.369 28.1158 204.284 28.2243 204.179 28.3064C203.594 28.8049 202.972 29.2273 202.326 29.6468C200.618 30.7674 198.738 31.7474 196.855 32.5605C195.975 32.9509 195.077 33.2915 194.191 33.5383C193.823 33.6353 193.434 33.7059 193.048 33.7531C192.978 33.7444 192.881 33.7562 192.808 33.7709C192.641 33.774 192.902 33.7825 192.738 33.7622C192.598 33.7447 192.434 33.7243 192.293 33.7069C192.083 33.6807 192.384 33.742 192.247 33.701C192.2 33.6952 192.132 33.6631 192.089 33.6338C192.083 33.6807 192.021 33.6016 192.089 33.6338C192.089 33.6338 192.021 33.6016 192.024 33.5782C192.021 33.6016 192.241 34.1288 192.264 34.1317C192.241 34.1288 192.323 33.8533 192.387 33.7185C192.451 33.5837 192.6 33.3404 192.741 33.1674C193.427 32.2294 194.331 31.461 195.205 30.7367C197.272 29.0182 199.435 27.4783 201.78 26.199C203.845 25.0752 205.684 24.2329 208.047 24.3364C208.494 24.3683 208.942 24.4001 209.325 24.5668C209.664 24.7042 209.793 24.8154 209.872 25.1347L209.988 24.1971C209.226 25.3637 207.714 25.866 206.553 26.4119C204.86 27.2248 203.249 28.3335 201.67 29.3749C200.089 30.4397 198.527 31.5308 196.966 32.6219C195.534 33.6339 194.034 34.6136 192.414 35.2214C191.54 35.5649 190.613 35.759 189.671 35.6895C188.516 35.6172 187.413 35.3135 186.27 35.1474C185.149 34.9843 184.916 36.8595 186.036 37.0226L186.191 37.1133Z" fill="#672145"/>
<path d="M202.816 43.8456C202.943 46.4558 203.646 49.0187 204.46 51.4526C204.615 51.9242 205.182 52.1376 205.612 51.9292C206.065 51.7237 206.252 51.1757 206.074 50.7013C205.313 48.4168 204.659 46.0267 204.562 43.5629C204.53 43.059 204.027 42.7108 203.567 42.7727C203.059 42.8522 202.784 43.3417 202.816 43.8456Z" fill="#672145"/>
<path d="M196.779 45.5955C197.902 45.7352 198.135 43.86 197.012 43.7203C195.889 43.5806 195.656 45.4558 196.779 45.5955Z" fill="#672145"/>
<path d="M209.195 46.2341C210.318 46.3738 210.552 44.4986 209.429 44.359C208.306 44.2193 208.072 46.0945 209.195 46.2341Z" fill="#672145"/>
<path d="M193.69 52.0898C194.059 52.7545 194.732 53.2667 195.291 53.7408C196.177 54.4461 197.122 55.0635 198.099 55.6135C199.895 56.6462 202.103 57.8016 204.194 57.6094C205.13 57.5354 206.057 56.9604 206.328 55.9231C206.46 55.4396 206.336 54.9006 205.863 54.6988C205.479 54.5322 204.836 54.7378 204.705 55.2213C204.693 55.3151 204.55 55.7019 204.626 55.4733C204.617 55.5436 204.532 55.6521 204.623 55.4968C204.594 55.5407 204.36 55.702 204.567 55.5613C204.491 55.5994 204.167 55.7256 204.339 55.6757C204.19 55.7286 204.024 55.7316 203.857 55.7347C203.833 55.7318 203.927 55.7434 203.763 55.723C203.67 55.7114 203.6 55.7027 203.506 55.691C203.295 55.6648 203.108 55.6416 202.898 55.6154C202.479 55.5395 202.137 55.4256 201.684 55.2502C199.844 54.5691 198.092 53.5656 196.533 52.3482C196.185 52.0907 195.863 51.8126 195.544 51.5111C195.503 51.4584 195.313 51.2681 195.439 51.4028C195.374 51.3472 195.333 51.2945 195.295 51.2183C195.214 51.1129 195.132 51.0075 195.053 50.8787C194.798 50.4424 194.181 50.437 193.836 50.7274C193.415 51.0558 193.439 51.63 193.673 52.04L193.69 52.0898Z" fill="#672145"/>
<path d="M52.9772 276.634C52.7344 276.485 52.515 276.338 52.2693 276.212C51.7399 275.885 51.1698 276.457 51.0589 276.966C50.5042 279.516 51.5755 282.172 52.3046 284.524C52.9165 286.481 53.4702 289.096 55.5146 289.85C55.7866 289.956 56.1697 289.932 56.3861 289.721C58.2979 287.721 57.7003 284.886 56.9507 282.507C56.0812 279.757 55.2876 276.969 54.418 274.219C54.1311 273.278 53.61 271.928 52.4754 272.073C51.5835 272.176 51.1656 273.052 51.0578 273.92C50.8478 275.607 51.2901 277.4 51.5831 279.055C52.093 281.832 52.8135 284.825 54.8555 286.746C55.151 287.044 55.613 286.959 55.9258 286.736C56.7591 286.149 56.6182 284.799 56.4658 283.923C56.3192 283 56.0528 282.086 55.9062 281.164C55.5926 279.292 55.2556 277.417 54.9683 275.525C54.7103 273.779 54.5488 272.021 54.168 270.308C54.0918 269.965 54.0157 269.622 53.9395 269.279C53.8956 269.06 53.7404 268.588 53.8368 268.386C53.9654 268.116 54.5736 268.002 54.7813 268.051C55.3516 268.241 55.5481 269.718 55.7121 270.309C56.1251 271.955 56.7105 273.552 57.2492 275.142C57.8201 276.855 58.3647 278.589 58.9853 280.285C59.6644 282.083 60.4635 283.873 60.9672 285.744C61.2307 286.682 61.4039 288.346 62.1762 289.203C62.656 289.739 63.6474 289.601 63.7318 288.73C63.8746 287.391 63.0233 286.405 62.4175 285.354C61.5952 283.942 60.9045 282.428 60.1846 280.958C59.5027 279.564 58.85 278.126 58.1418 276.753C57.5096 275.531 56.9915 274.158 56.067 273.186C55.7101 272.808 55.1136 273.02 54.833 273.366C53.6579 274.79 54.46 277.128 54.7355 278.733C54.9407 279.949 55.1459 281.164 55.4972 282.35C55.872 283.54 56.3988 284.652 57.0046 285.704C58.1575 287.704 59.7403 289.495 61.8228 290.326C62.1182 290.434 62.4867 290.527 62.7237 290.723C62.984 290.922 63.0777 291.315 63.1334 291.631C63.2916 292.46 63.447 293.503 63.2222 294.356C62.9593 295.323 61.9302 295.956 61.2812 296.59C60.4129 297.458 59.6062 298.405 58.9076 299.437C57.8291 301.04 56.327 303.947 58.3045 305.431C59.261 306.145 60.1762 305.664 60.8777 304.799C61.5237 303.999 61.8216 302.941 61.9031 301.904C62.0662 300.02 61.6356 298.133 61.2694 296.303C61.0936 295.424 60.8007 294.34 59.9408 293.995C59.0809 293.65 58.3208 294.222 57.9789 295.06C57.3975 296.488 57.4479 298.184 57.3753 299.722L59.1066 299.937C59.1849 297.971 58.6227 296.188 58.0664 294.357C57.5745 292.773 56.9422 291.171 55.6171 290.173C55.269 289.915 54.883 289.962 54.5468 290.182C53.4826 290.907 53.7317 292.533 53.8521 293.666C54.0163 295.02 54.0811 296.218 55.2629 297.031C55.6344 297.292 56.2046 297.291 56.4969 296.852C57.1107 295.928 56.8586 294.326 56.7734 293.292C56.6706 292.017 56.5355 290.43 55.8361 289.367C55.3768 288.667 54.6105 288.524 54.0288 289.19C53.4763 289.811 53.2017 290.681 53.1465 291.508C53.0535 293.21 53.6918 295.146 55.0988 296.059C55.6926 296.442 56.2043 296.339 56.7393 295.858C57.1135 295.524 57.4058 295.084 57.5401 294.577C57.7825 293.774 57.5452 292.626 58.0363 291.926L57.0011 292.225C57.9371 292.532 58.6129 293.402 59.5722 293.711C60.0753 293.869 60.7977 293.983 61.2479 293.61C61.5666 293.341 61.7009 292.834 61.7271 292.432C61.7882 291.559 61.5948 290.631 61.3401 289.813C61.1 289.069 60.7254 288.261 60.0322 287.913C59.5846 287.691 59.0934 288.011 58.8743 288.436C58.6551 288.861 58.626 289.285 58.6145 289.76C58.6235 290.261 59.1734 290.615 59.6091 290.55C60.1179 290.471 60.3692 289.978 60.3603 289.477C60.3748 289.36 60.4128 289.246 60.4976 289.137C60.1204 289.305 59.7403 289.495 59.3397 289.66C59.2286 289.598 59.3192 289.633 59.3339 289.707C59.3924 289.809 59.4538 289.888 59.4861 290.011C59.6148 290.313 59.7173 290.635 59.7993 290.931C59.8784 291.25 59.9312 291.59 59.9605 291.927C59.9664 292.07 59.9811 292.144 59.9665 292.261C59.9432 292.448 59.8906 292.489 60.0075 292.314C60.1887 292.193 60.3934 292.076 60.5747 291.956C60.0395 292.056 59.6066 291.716 59.1941 291.403C58.7144 291.058 58.2376 290.689 57.6673 290.499C57.3017 290.382 56.8893 290.45 56.6321 290.799C56.1732 291.432 56.0565 292.179 55.9837 292.956C55.9342 293.544 55.9695 294.215 55.4082 294.526C55.6451 294.532 55.8615 294.511 56.0983 294.517C54.9868 293.903 54.2723 291.433 55.3072 290.372C55.085 290.44 54.8861 290.51 54.6639 290.578C54.4299 290.549 54.4679 290.434 54.3509 290.42C54.3714 290.446 54.389 290.496 54.4329 290.525C54.3743 290.423 54.3743 290.423 54.4329 290.525C54.547 290.754 54.6114 291 54.6788 291.222C54.8047 291.738 54.9307 292.444 54.9982 293.047C55.0833 293.7 55.1186 294.371 55.1305 295.039C55.1422 294.945 55.1043 295.25 55.0985 295.297C55.0839 295.414 55.0693 295.531 55.0547 295.649C55.0431 295.742 55.0314 295.836 55.0197 295.93C55.0402 295.766 55.0665 295.745 55.0314 295.836C54.9963 295.927 55.0256 295.883 55.0928 295.725C55.5051 295.657 55.9174 295.589 56.3268 295.545C55.6043 295.051 55.6889 294.371 55.6037 293.527C55.5597 293.117 55.2581 291.913 55.6177 291.696C55.2609 291.699 54.9041 291.703 54.5473 291.706C55.6121 292.505 56.063 293.846 56.4495 295.132C56.9062 296.617 57.4303 298.134 57.3724 299.745C57.3202 300.929 59.0457 301.191 59.1037 299.961C59.1735 298.827 59.1965 297.687 59.3861 296.544C59.4182 296.287 59.4386 296.123 59.538 295.897C59.5467 295.827 59.5993 295.786 59.6081 295.715C59.8361 295.601 59.5671 295.663 59.6081 295.715C59.5555 295.756 59.5028 295.797 59.4297 295.812C59.2162 295.809 59.2396 295.622 59.266 295.792C59.266 295.792 59.3772 296.044 59.3918 296.117C59.5001 296.392 59.5324 296.706 59.591 296.998C59.8519 298.53 60.256 300.056 60.1571 301.615C60.0961 302.488 59.8769 303.104 59.3888 303.781C59.3596 303.825 59.1549 303.942 59.2982 303.936C59.3918 303.948 59.1519 303.775 59.1168 303.676C58.9851 303.397 59.1078 302.984 59.213 302.712C59.8264 300.836 61.1476 299.191 62.5216 297.887C63.194 297.256 63.957 296.661 64.4393 295.84C64.9215 295.019 65.0294 294.152 65.029 293.2C65.0167 291.58 64.7821 289.646 63.2582 288.909C62.5415 288.558 61.784 288.345 61.1346 287.836C60.3741 287.265 59.7275 286.542 59.1599 285.758C57.8052 283.851 56.9826 281.678 56.5869 279.32C56.4345 278.444 56.2792 277.592 56.1268 276.716C56.0155 276.083 55.7928 275.008 56.2108 274.513C55.7985 274.581 55.3862 274.648 54.9768 274.693C55.3337 275.07 55.5766 275.6 55.802 276.081C56.0859 276.663 56.3961 277.226 56.6799 277.808C57.3267 279.103 57.9238 280.415 58.5706 281.709C59.2173 283.004 59.8378 284.319 60.5109 285.592C60.8006 286.128 61.0903 286.664 61.4298 287.182C61.6697 287.546 62.0354 288.043 62.0005 288.515L63.5561 288.042C63.2226 287.667 63.082 287.079 62.9532 286.586C62.7921 285.971 62.6778 285.362 62.5138 284.77C62.016 283.042 61.3165 281.408 60.6696 279.733C60.008 277.984 59.4488 276.177 58.8398 274.388C58.3216 272.824 57.7098 271.248 57.3173 269.628C57.0508 268.524 56.7871 267.206 55.8277 266.515C54.8243 265.795 53.1605 266.183 52.4385 267.212C51.5412 268.505 52.4339 270.497 52.6713 271.835C53.0112 273.686 53.1757 275.611 53.4659 277.48C53.7502 279.205 53.9614 280.945 54.3685 282.638C54.5091 283.227 54.6497 283.816 54.7201 284.396C54.7611 284.639 54.7963 284.929 54.7701 285.14L54.7322 285.445C54.6386 285.433 54.9865 285.119 54.8023 285.263C55.1591 285.26 55.5159 285.257 55.8726 285.253C54.4918 283.939 53.8945 281.865 53.4873 279.982C53.168 278.538 52.8808 277.026 52.7574 275.535C52.7252 275.222 52.69 274.932 52.7045 274.624C52.7249 274.46 52.7248 274.27 52.7452 274.106C52.7656 273.942 52.8241 273.854 52.8036 273.827C52.7538 273.654 52.8972 273.839 52.7744 273.871C52.7276 273.865 52.6691 273.953 52.6194 273.971C52.1457 274.15 52.2304 273.661 52.3504 274.033C52.4704 274.405 52.6636 274.762 52.7807 275.157C53.5098 277.509 54.1628 279.899 54.9386 282.257C55.2841 283.3 55.653 284.345 55.8025 285.435C55.9433 286.405 55.9876 287.577 55.2743 288.345C55.5638 288.309 55.8562 288.251 56.1457 288.215C55.3736 287.929 54.9755 287.117 54.6653 286.365C54.3199 285.513 54.1002 284.605 53.8308 283.714C53.2013 281.708 52.2939 279.453 52.7522 277.296C52.34 277.554 51.9512 277.815 51.5418 278.05C51.7846 278.199 52.004 278.346 52.2497 278.471C52.6709 278.714 53.2352 278.38 53.4076 277.949C53.615 277.427 53.3399 276.965 52.9421 276.725L52.9772 276.634Z" fill="#672145"/>
<path d="M57.3745 299.151C57.4704 297.615 57.0984 296.022 56.4809 294.684C55.7667 293.167 54.655 291.791 52.9996 291.537C52.3942 291.438 51.7335 291.975 51.6987 292.637C51.6346 293.343 52.0618 293.92 52.6906 294.022C53.0299 294.159 52.8076 294.036 52.6906 294.022C52.7374 294.028 52.8076 294.036 52.8514 294.066C52.9889 294.106 53.0971 294.191 53.2317 294.256C52.9392 294.124 53.0767 294.165 53.1615 294.247C53.2258 294.303 53.2931 294.335 53.3575 294.39C53.4423 294.472 53.5476 294.581 53.6354 294.639C53.5739 294.56 53.375 294.44 53.6354 294.639C53.6764 294.692 53.7173 294.745 53.7583 294.797C53.8607 294.929 53.9397 295.058 54.0421 295.19C54.0831 295.242 54.1211 295.318 54.1621 295.371C54.1796 295.421 54.2001 295.447 54.2411 295.5C54.2996 295.602 54.2791 295.576 54.203 295.424C54.2323 295.57 54.3581 295.705 54.4108 295.854C54.5396 296.156 54.6684 296.458 54.7709 296.78C54.8236 296.929 54.847 297.122 54.9231 297.275C54.8675 297.149 54.8587 297.029 54.926 297.251C54.9407 297.325 54.9524 297.421 54.9671 297.494C55.0257 297.787 55.0843 298.08 55.0931 298.391C55.099 298.534 55.1049 298.678 55.1109 298.821C55.1285 299.062 55.1283 298.49 55.1225 298.728C55.1138 298.798 55.105 298.868 55.0963 298.939C55.0614 299.601 55.4535 300.268 56.0882 300.324C56.676 300.373 57.3484 299.933 57.3891 299.224L57.3745 299.151Z" fill="#672145"/>
<path d="M191.318 353.825C189.379 353.56 187.118 352.446 185.168 353.417C184.689 353.643 184.081 354.139 184.005 354.748C183.949 355.193 184.219 355.703 184.464 356.019C184.994 356.728 185.763 357.228 186.521 357.632C187.995 358.386 190.262 359.073 191.776 357.976C192.56 357.407 192.849 356.419 192.778 355.459C192.684 354.114 191.757 353.166 190.654 352.671C189.505 352.171 188.268 352.184 187.048 352.056C185.732 351.94 184.1 351.689 182.849 352.391C182.492 352.584 182.279 352.962 182.32 353.396C182.396 354.31 183.11 355.065 183.701 355.662C184.482 356.45 185.374 357.108 186.304 357.652C187.167 358.164 188.159 358.597 189.165 358.532C189.595 358.514 190.016 358.376 190.337 358.083C190.975 357.543 190.746 356.705 190.498 356.032C189.502 353.337 186.165 351.518 183.867 353.755C181.943 355.658 183.515 358.115 184.992 359.608C186.873 361.484 189.228 362.8 191.711 363.466C193.296 363.902 194.881 363.956 196.507 364.063C197.873 364.161 199.256 364.31 200.651 364.174C202.023 364.035 203.415 363.542 204.303 362.319C205.221 361.053 205.173 359.333 204.535 357.968C203.218 355.186 199.787 353.355 196.913 354.307C195.65 354.721 194.48 355.718 194.621 357.259C194.736 358.63 195.815 359.692 196.763 360.477C197.884 361.402 199.092 362.195 200.364 362.853C201.168 363.262 202.025 363.631 202.862 363.973C203.426 364.21 204.011 364.473 204.629 364.478C205.933 364.498 207.389 363.108 207.607 361.731C207.844 360.213 206.691 358.974 205.705 358.114C204.676 357.224 203.503 356.531 202.327 355.861C200.797 354.98 199.156 354.038 197.416 353.703C195.886 353.394 194.386 353.802 193.346 355.101C192.419 356.247 191.998 357.718 192.631 359.13C193.696 361.452 196.267 362.557 198.323 363.599C200.292 364.581 202.266 365.898 204.498 366.104C205.626 366.197 206.776 365.935 207.6 365.038C208.234 364.332 208.696 363.294 208.745 362.324C208.859 360.458 207.683 359.026 206.334 358.026C204.746 356.852 202.894 356.074 201.072 355.443C199.455 354.885 197.823 354.444 196.17 353.976C196.378 354.026 196.03 353.959 195.939 353.924C195.755 353.877 195.573 353.807 195.413 353.763C194.907 353.629 194.389 353.588 193.868 353.571C192.705 353.569 191.333 353.708 190.395 354.567C189.427 355.47 188.925 357.407 189.507 358.646C189.993 359.706 191.627 358.981 191.121 357.895C190.82 357.262 191.173 356.14 191.758 355.832C192.474 355.421 193.401 355.417 194.179 355.466C195.121 355.536 196.261 355.916 197.089 356.138C199.707 356.868 202.526 357.695 204.787 359.19C205.776 359.837 206.616 360.536 206.941 361.552C207.028 361.801 206.932 361.432 206.935 361.599C206.926 361.67 206.967 361.722 206.982 361.795C206.973 361.866 207.008 362.156 207.017 362.086C207.002 362.203 206.944 362.671 206.915 362.715C206.699 363.307 206.439 363.87 205.816 364.102C204.418 364.642 202.613 363.68 201.382 363.075C199.972 362.376 198.542 361.65 197.141 360.881C196.386 360.454 195.614 359.977 194.979 359.35C194.534 358.914 193.937 358.173 194.075 357.453C194.247 356.451 195.182 355.615 196.098 355.514C197.206 355.391 198.279 355.929 199.268 356.385C201.31 357.353 203.41 358.423 205.063 360.033C205.317 360.279 205.589 360.575 205.762 360.906C206.011 361.389 205.885 361.635 205.575 362.025C204.953 362.828 204.543 362.682 203.73 362.343C201.583 361.457 199.501 360.436 197.698 358.879C197.225 358.487 196.3 357.706 196.37 356.953C196.449 356.32 197.551 356.052 198.034 355.993C199.946 355.708 202.421 357.206 203.118 359.244C203.451 360.19 203.232 361.186 202.402 361.749C201.645 362.298 200.613 362.384 199.732 362.393C198.756 362.415 197.793 362.319 196.852 362.249C195.723 362.156 194.582 362.157 193.442 361.968C192.07 361.726 190.771 361.279 189.52 360.647C188.759 360.267 188.317 359.997 187.58 359.43C186.559 358.66 185.07 357.451 184.78 356.154C184.704 355.811 184.713 355.741 184.812 355.515C184.909 355.313 185.154 355.058 185.412 354.899C186.183 354.424 187.055 354.675 187.728 355.187C188.421 355.726 188.962 356.531 189.062 357.448C189.17 357.152 189.278 356.856 189.41 356.563C189.357 356.604 189.258 356.639 189.351 356.651C189.422 356.66 189.325 356.671 189.252 356.686C189.424 356.636 189.132 356.695 189.059 356.71C188.916 356.716 189.27 356.736 188.989 356.701C188.919 356.692 188.872 356.686 188.802 356.678C188.638 356.657 188.544 356.646 188.454 356.611C187.766 356.406 187.123 356.04 186.508 355.631C185.894 355.221 185.289 354.741 184.785 354.203C184.598 353.989 184.39 353.749 184.232 353.491C184.089 353.307 184.235 353.468 184.118 353.263C184.001 353.058 184.11 353.333 184.086 353.14C183.902 353.474 183.741 353.811 183.557 354.145C184.119 353.834 184.782 353.845 185.397 353.874C186.131 353.894 186.879 353.987 187.634 354.033C188.669 354.114 190.193 354.09 190.877 355.079C191.018 355.287 191.085 355.51 191.1 355.773C191.088 355.867 191.074 355.984 191.062 356.078C191.047 356.195 191.085 356.081 191.015 356.263C190.98 356.354 191.009 356.31 190.875 356.436C190.875 356.436 190.621 356.571 190.571 356.588C189.711 356.815 188.723 356.549 187.819 356.175C187.278 355.941 186.83 355.718 186.397 355.379C186.289 355.294 186.181 355.209 186.075 355.101C185.926 354.963 186.011 355.045 185.95 354.966C185.888 354.887 185.827 354.808 185.768 354.706C185.906 354.937 185.686 354.41 185.768 354.706C185.716 354.937 185.663 355.169 185.584 355.421C185.763 355.133 186.011 355.045 186.42 355.001C186.976 354.927 187.514 354.994 188.049 355.085C189.076 355.236 190.056 355.572 191.082 355.724C192.205 355.863 192.436 354.012 191.316 353.849L191.318 353.825Z" fill="#672145"/>
<path d="M201.004 359.815C201.656 358.396 202.392 356.869 202.427 355.255C202.441 354.757 202.172 354.248 201.678 354.21C201.257 354.157 200.713 354.518 200.696 355.04C200.672 355.418 200.626 355.793 200.559 356.141C200.553 356.188 200.547 356.235 200.541 356.282C200.559 356.141 200.556 356.165 200.541 356.282C200.532 356.352 200.5 356.42 200.465 356.511C200.418 356.695 200.348 356.877 200.278 357.059C200.024 357.765 199.703 358.439 199.405 359.116C199.206 359.567 199.44 360.168 199.87 360.34C200.347 360.519 200.803 360.29 201.028 359.818L201.004 359.815Z" fill="#672145"/>
<path d="M200.072 353.176C200.072 353.176 200.008 353.311 199.955 353.352C199.844 353.481 199.841 353.504 199.923 353.419C199.923 353.419 199.946 353.422 200.049 353.363C200.174 353.308 200.297 353.275 200.517 353.231C200.885 353.134 201.236 352.987 201.525 353.143C201.815 353.298 202.128 353.646 202.377 353.939C202.769 354.416 203.161 354.893 203.608 355.306C204.524 356.158 205.612 356.769 206.554 357.6C207.002 358.013 207.368 358.511 207.812 358.947C208.28 359.386 208.924 359.561 209.395 359.977C209.883 359.3 210.345 358.643 210.833 357.966C210.681 357.852 210.526 357.761 210.403 357.603C209.99 357.099 209.294 356.965 208.765 357.399C208.288 357.792 208.134 358.654 208.546 359.157C208.792 359.473 209.067 359.746 209.395 359.977C210.644 360.822 211.988 358.99 210.833 357.966C210.297 357.495 209.628 357.34 209.124 356.801C208.58 356.21 208.06 355.621 207.431 355.139C206.284 354.234 205.14 353.497 204.186 352.379C203.253 351.287 202.162 350.318 200.674 350.632C199.407 350.88 197.951 351.317 197.729 352.908C197.508 354.499 199.824 354.787 200.046 353.196L200.072 353.176Z" fill="#672145"/>
<path d="M205.917 360.237C206.08 360.257 206.241 360.301 206.402 360.345C206.449 360.351 206.654 360.424 206.425 360.348C206.519 360.36 206.61 360.395 206.7 360.43C207.019 360.541 207.338 360.652 207.63 360.784C207.721 360.819 207.809 360.877 207.876 360.909C207.923 360.915 208.186 361.091 207.987 360.971C208.119 361.058 208.251 361.146 208.379 361.258C208.444 361.313 208.508 361.369 208.569 361.448C208.464 361.339 208.529 361.395 208.59 361.474C208.651 361.553 208.692 361.606 208.754 361.685C208.856 361.817 208.701 361.536 208.795 361.738C208.809 361.811 208.85 361.864 208.865 361.937C208.956 362.162 208.839 361.767 208.865 361.937C208.897 362.06 208.927 362.206 208.935 362.326C209.009 362.693 209.061 363.032 209.161 363.378C209.375 364.142 209.91 364.804 210.711 364.856C211.159 364.888 211.65 364.568 211.694 364.026C211.752 363.557 211.439 363.019 210.945 362.981C210.851 362.969 210.67 362.899 210.945 362.981C210.854 362.946 210.874 362.972 211.009 363.037C210.986 363.034 210.965 363.007 210.921 362.978C211.109 363.192 210.986 363.034 210.945 362.981C210.804 362.773 210.977 363.104 210.924 362.955C210.869 362.829 210.836 362.706 210.784 362.556C210.731 362.407 210.831 362.753 210.792 362.486C210.801 362.416 210.76 362.363 210.746 362.29C210.596 361.581 210.491 360.901 210.063 360.324C209.124 359.089 207.548 358.583 206.135 358.289C205.696 358.186 205.191 358.623 205.153 359.119C205.086 359.658 205.416 360.056 205.902 360.164L205.917 360.237Z" fill="#672145"/>
<path d="M196.907 365.827C198.041 366.064 199.164 366.394 200.296 366.654C201.384 366.884 202.513 366.977 203.636 367.117C204.829 367.265 206.02 367.437 207.216 367.562C207.731 367.626 208.225 367.664 208.739 367.537C209.105 367.464 209.453 367.341 209.81 367.337C210.57 367.337 211.298 367.594 212.059 367.403C212.991 367.162 213.705 366.394 214.102 365.491C214.958 363.574 213.919 361.422 212.848 359.908C212.161 358.942 210.778 360.127 211.468 361.069C212.215 362.138 213.332 364.038 212.157 365.273C211.745 365.721 211.236 365.611 210.698 365.544C209.949 365.45 209.28 365.486 208.569 365.66C207.689 365.86 206.771 365.602 205.905 365.495C204.922 365.373 203.963 365.253 202.98 365.131C202.021 365.012 201.085 364.895 200.138 364.682C199.146 364.44 198.181 364.177 197.187 363.958C196.075 363.725 195.865 365.603 196.953 365.833L196.907 365.827Z" fill="#672145"/>
<path d="M28.602 151.33C28.444 151.262 28.2861 151.195 28.1252 151.151C28.3095 151.388 28.4676 151.646 28.6519 151.883C28.5894 148.948 26.2431 146.418 24.8911 144.108C22.992 140.849 21.5255 137.358 20.1351 133.829C19.5029 132.227 18.8472 130.622 18.364 128.967C17.8399 127.259 17.5322 125.531 16.9087 123.859C15.6763 120.587 15.9032 117.236 15.7381 113.788C15.6409 111.895 15.5877 110.222 15.8706 108.329C16.1389 106.363 16.1293 104.149 16.927 102.32C18.3938 98.9321 20.124 95.9102 22.0763 92.8207C22.9648 91.4078 23.8007 90.036 25.1544 89.0857C26.5343 88.1148 28.0372 87.4925 29.2182 86.2112C30.5074 84.8244 31.4603 83.6576 33.1152 82.7686C34.6181 81.9558 36.0273 80.941 37.4921 80.052C40.5708 78.2214 43.6788 76.5371 46.503 74.2702C47.7981 73.2173 49.0494 72.1352 50.4088 71.138C51.7186 70.1584 53.1484 69.3604 54.4377 68.3544C55.803 67.3103 57.1098 66.1637 58.6126 65.351C60.1681 64.4971 61.6914 63.7107 63.2089 62.7807C66.1209 60.9531 69.8316 59.9628 73.0891 59.1778C76.566 58.3488 79.9666 57.177 83.4464 56.515C85.1279 56.1766 86.8502 55.891 88.5434 55.6494C90.333 55.396 92.1199 55.5468 93.8891 55.267C95.4389 55.0314 96.9449 54.576 98.4889 54.3873C100.492 54.1366 102.504 54.006 104.489 53.896C108.221 53.6937 111.952 53.6818 115.669 53.4062C117.444 53.27 119.254 53.0429 121.024 53.144C122.772 53.2187 124.419 53.3521 126.171 53.213C127.709 53.0711 129.273 53.0991 130.788 52.7638C132.429 52.3728 134.034 51.6918 135.657 51.251C137.256 50.8073 138.777 50.0443 140.47 50.1835C142.327 50.3431 144.085 50.7284 145.965 50.7005C149.39 50.6742 152.858 50.4868 156.268 50.0064C159.774 49.5142 163.362 50.4605 166.822 50.9147C170.212 51.3601 173.572 51.0878 176.964 51.3193C180.357 51.5509 183.697 52.3948 186.47 54.5488C189.179 56.6471 192.375 56.9257 195.388 58.3002C198.605 59.7477 201.65 61.626 204.809 63.1615C208.123 64.7877 211.343 66.5926 214.497 68.5558C217.472 70.4254 220.18 72.7142 223.158 74.5604C226.025 76.3451 229.128 77.7547 231.834 79.8764C237.459 84.3132 241.527 90.5794 245.395 96.7256C247.338 99.8236 249.278 102.754 251.697 105.459C253.947 108 255.943 110.486 258.66 112.514C261.354 114.539 264.615 115.445 267.371 117.358C268.573 118.198 269.766 118.918 271.068 119.532C272.659 120.301 274.122 121.34 275.687 122.13C278.416 123.493 281.94 124.574 284.996 124.645C286.561 124.673 288.131 124.463 289.716 124.327C291.541 124.173 293.331 124.491 295.138 124.288C298.317 123.945 301.293 122.364 304.334 121.409C307.401 120.434 310.618 119.215 313.419 117.517C315.965 115.953 317.304 112.835 319.353 110.686C320.361 109.645 321.595 108.894 322.642 107.929C323.744 106.9 324.243 105.177 325.395 104.32C326.495 103.505 327.685 103.105 328.711 102.114C329.661 101.161 330.482 100.097 331.043 98.8343C331.537 97.7294 329.914 97.0276 329.42 98.1325C328.757 99.6448 327.543 100.993 326.184 101.8C325.029 102.489 323.804 102.98 323.076 104.246C322.229 105.711 321.422 106.658 320.106 107.685C318.919 108.632 317.922 109.579 316.964 110.793C315.92 112.115 314.973 113.616 313.845 114.856C312.743 116.076 311.228 116.601 309.816 117.259C306.559 118.805 303.175 119.837 299.836 121.087C298.316 121.66 296.751 122.203 295.158 122.41C293.467 122.628 291.748 122.319 290.022 122.437C288.227 122.547 286.452 122.874 284.659 122.77C282.656 122.64 280.746 121.95 278.848 121.357C277.315 120.88 275.926 120.208 274.533 119.368C273.05 118.493 271.494 117.824 270.038 116.928C268.78 116.153 267.639 115.202 266.323 114.515C264.74 113.675 263.035 113.058 261.482 112.175C258.241 110.344 255.906 107.53 253.455 104.702C251.173 102.038 249.201 99.365 247.296 96.3431C243.445 90.2467 239.518 84.1884 234.194 79.4321C231.693 77.193 228.817 75.669 225.954 74.0512C222.736 72.2228 219.922 69.8258 216.821 67.8215C210.883 63.9885 204.574 61.0377 198.385 57.6971C196.849 56.8634 195.323 56.1498 193.676 55.6356C191.962 55.0891 190.046 54.8271 188.537 53.7824C187.355 52.9689 186.305 52.0528 185.033 51.3947C183.646 50.6986 182.137 50.2252 180.634 49.8954C177.276 49.1921 173.925 49.5846 170.53 49.3764C167.064 49.1596 163.607 48.4915 160.171 48.0403C158.603 47.8453 157.089 47.9901 155.515 48.2228C153.699 48.4968 151.886 48.5569 150.067 48.6639C148.225 48.7679 146.356 48.8925 144.514 48.8062C142.838 48.7167 141.127 48.1469 139.449 48.2713C137.937 48.3927 136.399 49.1059 134.945 49.5202C133.32 49.9844 131.735 50.6918 130.106 50.989C126.702 51.6129 123.357 51.1967 119.976 51.2523C116.262 51.3139 112.525 51.7536 108.805 51.8621C105.108 51.9736 101.365 52.0792 97.6664 52.595C96.0464 52.8219 94.4616 53.3388 92.824 53.516C90.9231 53.708 89.0749 53.6685 87.1829 53.9806C83.7148 54.5489 80.4514 55.3807 77.0565 56.3152C75.3839 56.7736 73.6791 57.109 71.986 57.541C70.1701 58.0054 68.3953 58.713 66.5911 59.274C63.5764 60.2082 60.948 62.0473 58.1499 63.532C55.3547 64.9933 52.8639 67.2542 50.218 69.0435C47.1832 71.0938 44.5522 73.7181 41.4179 75.6132C38.4357 77.4321 35.4389 79.3682 32.4039 81.0377C31.1789 81.7184 30.1 82.3697 29.1558 83.4662C28.5186 84.1962 27.9427 85.0053 27.2031 85.6035C26.4371 86.2223 25.5307 86.6332 24.7033 87.173C22.0749 88.8216 20.564 91.7995 18.8835 94.4229C17.9979 95.8123 17.2 97.2603 16.5806 98.8018C15.9846 100.346 15.0259 101.75 14.7019 103.4C14.3663 105.143 14.2588 106.963 14.0167 108.718C13.7863 110.569 13.8922 112.201 13.9719 114.044C14.131 117.348 13.8544 120.718 14.9844 123.857C16.1115 127.021 16.8468 130.278 18.0469 133.426C19.3935 136.926 20.8131 140.411 22.5924 143.679C23.3825 145.158 24.2545 146.552 25.1733 147.952C25.9692 149.193 26.8646 150.59 26.9061 152.166C26.915 152.477 27.1842 152.796 27.4328 152.898C27.5907 152.965 27.7487 153.032 27.9095 153.076C28.9508 153.491 29.6432 151.745 28.602 151.33Z" fill="#672145"/>
<path d="M321.462 109.02C321.462 109.02 321.468 108.973 321.64 109.113C321.769 109.224 321.874 109.333 321.974 109.488C322.24 109.83 322.454 110.214 322.664 110.621C323.106 111.462 323.548 112.302 324.016 113.122C325.298 115.424 326.176 117.913 327.154 120.367C328.038 122.62 329.042 124.863 330.569 126.719C331.971 128.441 333.65 129.84 335.446 131.063C337.438 132.429 339.526 133.593 341.574 134.895C341.969 135.159 342.492 135.153 342.808 134.716C343.068 134.343 343.059 133.652 342.661 133.412C339.028 131.104 334.974 129.124 332.098 125.695C330.527 123.81 329.529 121.52 328.63 119.194C327.662 116.67 326.713 114.171 325.387 111.841C324.881 110.944 324.428 110.007 323.901 109.085C323.412 108.239 322.748 107.275 321.762 107.177C320.639 107.037 320.406 108.912 321.529 109.052L321.462 109.02Z" fill="#672145"/>
<path d="M313.482 114.905C313.301 114.835 313.14 114.791 312.959 114.721C313.131 115.052 313.304 115.383 313.479 115.69C313.491 115.596 313.5 115.526 313.512 115.432C313.5 115.526 313.491 115.596 313.456 115.687C313.544 115.365 313.675 115.072 313.827 114.805C313.795 114.872 313.763 114.94 313.704 115.028C313.886 114.717 314.09 114.409 314.339 114.131C314.283 114.195 314.231 114.236 314.175 114.301C314.312 114.151 314.473 114.005 314.654 113.884C314.578 113.923 314.526 113.964 314.45 114.002C314.552 113.943 314.654 113.884 314.777 113.852L314.555 113.92C314.555 113.92 314.654 113.884 314.725 113.893C314.388 113.542 314.075 113.194 313.736 112.866C313.742 113.2 313.724 113.531 313.73 113.865C313.722 114.125 313.742 114.342 313.906 114.553C314.026 114.735 314.269 114.884 314.479 114.91C314.713 114.939 314.959 114.874 315.123 114.704C315.283 114.558 315.456 114.317 315.462 114.08C315.456 113.746 315.473 113.415 315.467 113.081C315.458 112.77 315.417 112.527 315.207 112.311C315.019 112.097 314.744 112.015 314.478 112.054C313.703 112.171 313.081 112.784 312.619 113.441C312.189 114.03 311.836 114.772 311.719 115.519C311.672 115.894 311.898 116.374 312.24 116.488C312.421 116.558 312.582 116.602 312.763 116.672C312.992 116.748 313.225 116.777 313.454 116.663C313.655 116.569 313.845 116.378 313.921 116.15C314.073 115.693 313.912 115.077 313.456 114.925L313.482 114.905Z" fill="#672145"/>
<path d="M330.181 100.226C330.885 98.9564 331.803 97.8805 332.99 97.1236C334.125 96.4079 335.414 95.9732 336.648 95.603C338.081 95.1624 339.52 94.6749 340.988 94.3338C342.555 93.9575 344.289 93.5782 345.865 93.8933C346.813 94.1063 347.679 94.214 348.647 94.0726C349.588 93.9517 350.462 93.7986 351.422 93.918C352.545 94.0576 352.775 92.2059 351.655 92.0428C350.789 91.9351 349.927 91.9944 349.055 92.124C348.16 92.2507 347.371 92.2953 346.491 92.1144C344.756 91.7321 342.969 91.9621 341.235 92.3414C339.648 92.6914 338.11 93.2141 336.554 93.6871C335.171 94.1101 333.764 94.5302 332.484 95.2754C330.922 96.1761 329.671 97.4487 328.754 99.0959C328.508 99.5414 328.514 100.066 328.9 100.4C329.222 100.678 329.892 100.642 330.134 100.22L330.181 100.226Z" fill="#672145"/>
<path d="M29.636 148.364C29.7643 147.333 29.8253 146.269 30.4099 145.39C30.9038 144.666 31.588 144.322 32.3248 143.938C33.1932 143.451 33.9358 142.829 34.7017 142.21C35.5759 141.486 36.4882 141.219 37.5467 140.922C39.8363 140.278 42.1113 139.752 44.48 139.618C45.5796 139.565 46.6967 139.561 47.8051 139.627C48.9398 139.673 50.0833 139.839 51.2209 139.862C52.4784 139.875 53.7241 139.602 54.9758 139.662C56.3678 139.74 57.7366 140.006 59.1404 140.18C60.2634 140.32 60.4937 138.468 59.3736 138.305C58.0634 138.142 56.7649 137.886 55.4459 137.793C54.2469 137.691 53.0567 137.9 51.8606 137.966C50.6178 138.025 49.3865 137.801 48.1582 137.743C46.9534 137.689 45.769 137.66 44.5729 137.726C42.0404 137.839 39.5724 138.389 37.1074 139.106C35.9728 139.441 34.9143 139.738 33.9407 140.497C33.1514 141.113 32.4235 141.808 31.558 142.272C30.6165 142.773 29.7189 143.304 29.0788 144.248C28.2897 145.436 28.1264 146.748 27.9544 148.131C27.8057 149.327 29.537 149.542 29.6857 148.346L29.636 148.364Z" fill="#672145"/>
<path d="M69.9428 170.42C70.5649 168.284 71.5 166.305 71.0488 164.012C70.6357 161.985 69.9915 159.905 68.7685 158.277C68.1775 157.49 67.4783 156.808 66.9136 156C66.3313 155.142 66.0121 154.079 65.5351 153.139C65.0581 152.198 64.3998 151.379 63.8964 150.459C63.3521 149.487 63.1879 148.324 62.6933 147.334C62.1958 146.368 61.6136 145.51 61.195 144.482C60.7647 143.357 60.3841 142.215 60.0035 141.073C59.6463 139.933 59.2657 138.791 58.8588 137.669C58.487 136.647 57.9309 135.578 57.7843 134.465C57.4853 132.476 58.1337 130.319 58.3581 128.324C58.4602 127.504 58.5184 126.654 58.9158 125.942C59.322 125.159 60.0529 124.631 60.7312 124.144C62.424 122.951 64.3889 122.053 66.3715 121.776C67.3629 121.637 68.3455 121.759 69.3252 121.714C70.4218 121.684 71.4482 121.264 72.5477 121.211C73.6473 121.157 74.7498 121.271 75.8581 121.147C76.9898 121.026 78.1097 120.617 79.2385 120.329C81.4433 119.794 83.6774 119.406 85.9291 119.067C90.5318 118.354 95.1464 117.738 99.7902 117.268C102.077 117.029 104.384 116.816 106.668 116.601C108.832 116.394 110.984 116.281 113.136 115.977C115.315 115.653 117.406 114.89 119.587 114.542C121.818 114.177 124.061 114.099 126.269 113.54C128.451 113.002 130.518 112.046 132.559 111.109C134.447 110.249 136.357 109.416 138.134 108.304C139.058 107.752 139.921 107.122 140.769 106.418C141.669 105.673 140.595 104.183 139.715 104.954C138.069 106.344 136.233 107.353 134.339 108.26C132.344 109.202 130.324 110.165 128.274 110.981C126.102 111.83 123.879 112.124 121.613 112.39C120.505 112.514 119.37 112.658 118.271 112.902C117.197 113.126 116.151 113.519 115.051 113.764C112.925 114.237 110.741 114.417 108.583 114.577C106.325 114.773 104.041 114.988 101.781 115.207C97.0903 115.671 92.4348 116.234 87.7648 116.915C85.4897 117.251 83.2147 117.587 80.9484 118.043C78.7055 118.502 76.5096 119.347 74.2286 119.349C73.1144 119.329 71.9797 119.284 70.9007 119.554C69.8743 119.783 68.9853 119.863 67.9442 119.829C65.859 119.784 63.8414 120.342 61.9409 121.296C60.245 122.132 58.2949 123.294 57.3802 125.108C56.562 126.72 56.5949 128.747 56.306 130.497C56.1222 131.593 55.9647 132.668 55.9709 133.764C55.9947 134.909 56.2992 135.899 56.6915 136.948C57.5287 139.194 58.2431 141.473 59.0306 143.737C59.4346 144.882 59.8415 146.004 60.4473 147.055C60.6609 147.438 60.9242 147.804 61.135 148.211C61.4218 148.771 61.5594 149.383 61.7702 149.981C62.1128 151.047 62.7097 151.978 63.3095 152.885C63.9094 153.793 64.3133 154.748 64.7611 155.732C65.2089 156.716 65.797 157.527 66.4787 158.35C67.0814 159.043 67.6812 159.761 68.1231 160.601C68.603 161.518 68.852 162.572 69.1331 163.559C69.4493 164.646 69.5404 165.633 69.3068 166.747C69.0849 167.766 68.6554 168.737 68.3633 169.748C68.0304 170.896 69.6274 171.619 69.9867 170.449L69.9428 170.42Z" fill="#672145"/>
<path d="M107.303 117.036C106.994 119.902 107.091 122.746 107.113 125.629C107.149 128.585 106.881 131.503 106.47 134.428C106.064 137.305 105.542 140.168 105.444 143.059C105.383 144.504 105.395 145.933 105.311 147.375C105.241 148.89 105.031 150.387 104.845 151.887C104.48 154.817 104.119 157.724 103.754 160.654C103.573 162.107 103.463 163.569 103.074 164.972C102.703 166.235 102.218 167.46 101.821 168.744C100.954 171.516 100.773 174.493 100.441 177.356C100.269 178.738 100.047 180.139 100.039 181.542C100.04 182.875 100.21 184.182 100.093 185.5C99.8255 188.419 99.344 191.334 98.9825 194.241C98.6092 197.241 98.239 200.218 97.8657 203.218C97.4867 206.265 97.1077 209.312 96.7315 212.336C96.3816 215.149 96.2043 218.102 95.5766 220.857C95.2993 222.131 94.7119 223.225 94.1391 224.391C93.5342 225.625 92.9966 226.891 92.5028 228.186C91.9857 229.479 91.489 230.797 91.1532 232.16C90.8233 233.476 90.6074 234.829 90.3213 236.174C90.0381 237.496 89.6906 238.762 89.1149 239.952C88.5392 241.142 87.8553 242.247 87.2826 243.413C86.7098 244.58 86.2745 245.787 86.0878 247.097C85.8749 248.427 85.8754 249.76 85.6858 251.093C84.9244 256.259 80.0178 257.886 76.1231 259.591C73.6583 260.689 71.1934 261.787 68.7138 262.811C66.4361 263.742 64.4831 265.308 62.2756 266.438C61.2873 266.934 60.2903 267.5 59.4542 268.301C58.6152 269.125 59.6686 270.589 60.5076 269.765C61.3729 268.92 62.408 268.43 63.4489 267.893C64.5131 267.359 65.4721 266.717 66.4574 266.054C68.7174 264.502 71.431 263.697 73.9192 262.602C76.08 261.657 78.2584 260.762 80.4045 259.743C82.2992 258.836 84.0827 257.678 85.439 255.942C86.2311 254.922 86.8507 253.761 87.1514 252.49C87.4785 251.197 87.5248 249.87 87.6442 248.528C87.7694 247.139 88.0731 245.844 88.6341 244.581C89.1863 243.388 89.8703 242.283 90.4693 241.096C91.6996 238.655 92.0583 235.962 92.651 233.298C93.2495 230.588 94.389 227.921 95.5754 225.45C96.154 224.237 96.794 223.103 97.1503 221.766C97.4686 220.544 97.6202 219.326 97.7777 218.06C98.1567 215.013 98.5328 211.989 98.9119 208.942C99.6758 202.8 100.439 196.659 101.2 190.541C101.372 189.158 101.594 187.758 101.766 186.375C101.938 184.992 101.868 183.65 101.829 182.241C101.77 180.806 101.968 179.402 102.143 177.996C102.327 176.519 102.464 175.036 102.65 173.536C102.831 172.083 103.033 170.656 103.491 169.261C103.885 168.001 104.394 166.779 104.744 165.49C105.133 164.086 105.281 162.7 105.459 161.27C105.649 159.747 105.835 158.247 106.025 156.723C106.392 153.77 106.88 150.807 107.06 147.83C107.234 144.901 107.195 141.968 107.583 139.041C107.971 136.114 108.502 133.181 108.749 130.236C108.988 127.362 108.85 124.465 108.851 121.585C108.845 120.108 108.909 118.64 109.066 117.184C109.215 115.989 107.46 115.771 107.335 116.969L107.303 117.036Z" fill="#672145"/>
<path d="M61.0768 266.717C61.0768 266.717 61.1469 266.535 61.182 266.444C61.1498 266.511 61.1177 266.579 61.0592 266.667C61.1527 266.488 61.2901 266.338 61.4041 266.186C61.3486 266.251 61.296 266.292 61.2404 266.356C61.7608 265.802 62.404 265.406 62.9829 264.954C62.6405 264.459 62.2748 263.962 61.9295 263.49C61.8769 263.531 61.8243 263.572 61.7716 263.613C61.8477 263.575 61.9003 263.534 61.9763 263.496C61.6138 263.737 61.1722 263.848 60.7921 264.039C60.26 264.306 59.7308 264.74 59.5556 265.385C59.4767 265.637 59.4476 265.871 59.5588 266.123C59.6524 266.325 59.8163 266.536 60.021 266.609C60.2258 266.682 60.4831 266.714 60.7112 266.6C60.9129 266.506 61.1264 266.318 61.1789 266.087C61.1906 265.993 61.2256 265.902 61.2812 265.838C61.249 265.905 61.2169 265.972 61.1584 266.06C61.2169 265.972 61.249 265.905 61.328 265.843C61.2724 265.908 61.2198 265.949 61.1643 266.013C61.2461 265.928 61.325 265.867 61.404 265.805C61.328 265.843 61.2753 265.884 61.1993 265.923C61.4566 265.764 61.7549 265.658 62.0297 265.55C62.3806 265.403 62.7081 265.253 63.0004 265.004C63.3717 264.693 63.4738 264.063 63.1637 263.691C62.8565 263.296 62.3418 263.232 61.9471 263.54C61.5261 263.869 61.0846 264.171 60.6607 264.523C60.3947 264.751 60.152 264.983 59.9299 265.241C59.734 265.478 59.5557 265.766 59.4476 266.062C59.3688 266.314 59.363 266.551 59.4508 266.8C59.5445 267.002 59.7083 267.213 59.9131 267.286C60.1178 267.359 60.3752 267.391 60.6032 267.277C60.805 267.183 60.995 266.992 61.071 266.763L61.0768 266.717Z" fill="#672145"/>
<path d="M96.489 221.162C96.3253 221.332 96.1616 221.502 96.0008 221.649C95.4834 222.179 95.5831 222.906 96.1798 223.266C97.0661 223.781 98.1013 223.671 99.0634 223.577C100.145 223.473 101.215 223.464 102.298 223.551C104.582 223.716 106.819 224.066 109.097 224.278C111.258 224.475 113.469 224.655 115.511 225.432C117.666 226.248 119.813 227.134 121.96 228.02C124.04 228.874 125.792 230.258 127.743 231.381C129.694 232.505 131.876 233.109 134.04 233.664C136.228 234.222 138.477 234.668 140.65 235.343C141.75 235.67 142.843 236.044 143.934 236.442C145.028 236.816 146.078 237.351 147.178 237.679C148.231 238 149.31 238.11 150.372 238.362C151.436 238.589 152.472 239.051 153.53 239.326C155.625 239.872 157.78 240.116 159.944 240.29C164.577 240.676 169.159 241.27 173.768 241.843C176.085 242.131 178.398 242.443 180.688 242.942C182.934 243.412 185.148 243.949 187.418 244.231C188.47 244.362 189.491 244.37 190.541 244.144C191.518 243.932 192.459 243.621 193.439 243.576C195.588 243.486 197.744 244.111 199.846 244.397C201.899 244.7 203.991 245.269 206.082 245.268C207.079 245.273 208.038 245.011 209.047 244.922C210.149 244.845 211.302 245.131 212.401 245.268C214.551 245.559 216.695 246.088 218.868 246.191C219.906 246.249 220.923 246.09 221.959 245.981C222.874 245.881 223.707 246.056 224.596 246.166C225.509 246.28 226.36 246.124 227.082 245.476C227.941 244.678 226.888 243.214 226.029 244.012C225.409 244.601 224.599 244.239 223.853 244.122C222.873 243.976 221.885 244.091 220.893 244.23C218.767 244.513 216.714 244.019 214.617 243.687C213.547 243.506 212.471 243.373 211.395 243.239C210.318 243.105 209.265 242.974 208.198 243.151C207.227 243.315 206.309 243.439 205.323 243.34C204.268 243.233 203.247 243.035 202.203 242.833C200.112 242.454 197.971 242.093 195.842 241.828C194.836 241.703 193.777 241.619 192.765 241.731C191.824 241.852 190.909 242.142 189.985 242.313C187.844 242.713 185.531 242.021 183.472 241.574C181.272 241.11 179.082 240.576 176.859 240.3C172.232 239.676 167.565 239.001 162.885 238.609C160.745 238.438 158.622 238.317 156.501 237.981C155.475 237.83 154.431 237.629 153.445 237.339C152.415 237.021 151.444 236.615 150.377 236.41C149.266 236.177 148.14 236.061 147.078 235.619C146.04 235.181 145.019 234.792 143.945 234.444C141.801 233.725 139.625 233.074 137.432 232.563C135.262 232.055 133.089 231.57 130.977 230.784C128.886 230.024 127.145 228.736 125.247 227.572C123.325 226.404 121.181 225.685 119.119 224.882C117.034 224.075 115.057 223.162 112.819 222.813C110.699 222.477 108.57 222.403 106.441 222.138C104.171 221.856 101.884 221.524 99.5627 221.663C98.6767 221.72 97.7146 222.005 96.8956 221.522C96.9484 222.052 97.0247 222.585 97.0746 223.139C97.2383 222.969 97.402 222.799 97.5628 222.652C98.3784 221.825 97.328 220.338 96.5095 221.188L96.489 221.162Z" fill="#672145"/>
<path d="M250.033 134.123C249.558 137.944 249.086 141.741 248.611 145.562C248.383 147.39 248.27 149.257 247.671 151.015C247.145 152.568 246.485 154.057 246.07 155.671C245.6 157.541 245.297 159.407 244.78 161.271C244.304 162.997 243.76 164.691 243.217 166.385C242.127 169.796 241.503 173.288 240.618 176.773C239.724 180.327 239.556 183.972 238.987 187.59C238.678 189.504 238.208 191.373 237.828 193.278C237.461 195.089 237.277 196.946 236.909 198.757C236.574 200.501 236.118 202.253 235.782 203.996C235.438 205.81 235.281 207.647 234.866 209.452C234.446 211.304 233.885 213.139 233.418 214.985C232.986 216.74 232.802 218.597 232.232 220.312C231.704 221.888 231.476 223.526 231.018 225.112C230.772 225.938 230.503 226.761 230.279 227.614C230.083 228.423 230.127 229.214 230.025 230.034C229.917 230.902 229.584 231.669 229.271 232.464C228.956 233.281 228.754 234.137 228.53 234.99C228.062 236.836 227.668 238.667 226.996 240.44C226.321 242.237 225.79 243.837 225.597 245.765C225.423 247.552 224.838 249.193 224.409 250.925C223.986 252.61 223.887 254.359 223.414 256.061C222.912 257.808 222.248 259.51 221.562 261.21C220.188 264.61 219.169 268.03 218.088 271.561C217.533 273.348 216.999 275.162 216.698 277.005C216.383 278.775 216.182 280.583 215.914 282.359C214.723 289.637 215.574 297.121 213.562 304.321C213.089 306.024 212.545 307.718 212.163 309.455C211.964 310.288 211.903 311.161 211.681 311.99C211.486 312.799 211.106 313.561 210.773 314.329C210.054 315.905 209.704 317.576 209.21 319.252C208.681 321.019 207.995 322.719 207.554 324.544C206.669 328.028 206.15 331.629 205.128 335.073C204.637 336.725 204.278 338.466 203.72 340.086C203.244 341.432 202.835 342.618 202.774 344.063C202.722 345.056 202.901 346.863 202.12 347.599C202.477 347.596 202.834 347.593 203.19 347.59C202.889 347.338 202.579 347.157 202.248 346.949C201.248 346.396 200.579 348.146 201.556 348.696C201.758 348.792 201.93 348.933 202.103 349.073C202.384 349.298 202.878 349.336 203.173 349.063C205.082 347.278 204.084 344.226 204.89 341.946C205.469 340.352 205.816 338.705 206.324 337.102C206.841 335.429 207.309 333.773 207.688 332.059C208.526 328.378 209.154 324.672 210.451 321.12C211.061 319.458 211.33 317.683 211.964 316.024C212.56 314.479 213.299 313.119 213.579 311.441C214.142 307.869 215.603 304.528 216.119 300.95C216.645 297.302 217.038 293.567 217.022 289.875C217.021 286.067 217.806 282.427 218.275 278.653C218.745 274.88 220.056 271.211 221.125 267.583C222.153 264.093 223.819 260.825 224.917 257.343C225.434 255.67 225.644 253.982 225.954 252.259C226.284 250.563 226.935 248.954 227.242 247.254C227.408 246.299 227.408 245.347 227.597 244.395C227.79 243.419 228.19 242.493 228.541 241.584C229.21 239.835 229.665 238.082 230.106 236.257C230.314 235.354 230.524 234.428 230.845 233.564C231.137 232.743 231.494 231.978 231.695 231.123C231.888 230.337 231.861 229.596 231.937 228.796C232.057 227.835 232.384 226.924 232.664 226.007C233.146 224.424 233.35 222.784 233.879 221.207C234.446 219.516 234.641 217.755 235.047 216.02C235.491 214.171 236.028 212.334 236.495 210.488C236.933 208.686 237.161 206.858 237.458 205.038C237.759 203.195 238.22 201.396 238.588 199.585C238.956 197.774 239.137 195.94 239.504 194.129C239.884 192.224 240.354 190.355 240.684 188.468C241.022 186.511 241.223 184.512 241.468 182.543C241.69 180.762 241.909 179.004 242.361 177.275C242.79 175.543 243.24 173.838 243.579 172.071C244.241 168.464 245.626 164.971 246.634 161.454C247.145 159.637 247.401 157.765 247.889 155.945C248.327 154.334 249.058 152.854 249.516 151.268C250.045 149.501 250.179 147.661 250.403 145.856C250.637 143.981 250.87 142.106 251.1 140.254L251.826 134.418C251.975 133.222 250.244 133.007 250.095 134.202L250.033 134.123Z" fill="#672145"/>
<path d="M67.9241 295.133C71.106 295.528 74.2442 296.276 77.4524 296.461C78.9877 296.533 80.4674 296.288 81.991 296.263C83.6082 296.25 85.2723 296.624 86.8867 296.825C88.4542 297.02 90.0101 297.118 91.5746 297.146C93.186 297.18 94.8149 297.264 96.4146 297.201C99.5173 297.087 102.643 296.214 105.67 295.567C108.647 294.938 111.503 293.746 114.322 292.478C117.117 291.207 119.968 290.062 122.714 288.618C125.386 287.189 128.055 285.593 130.924 284.689C132.284 284.263 133.664 284.054 135.003 283.601C136.269 283.164 137.506 282.58 138.684 281.893C139.325 281.521 139.944 281.122 140.564 280.723C141.129 280.388 141.728 280.153 142.313 279.845C142.895 279.561 143.415 279.197 143.877 278.731C144.424 278.156 144.722 277.479 145.052 276.735C145.648 275.381 147.084 274.726 148.233 274.084C149.405 273.444 150.627 272.977 151.762 272.261C152.975 271.484 153.884 270.288 154.787 269.139C155.211 268.596 155.682 268.06 156.062 267.488C156.383 267.005 156.643 266.442 157.029 266.014C157.386 265.63 157.865 265.785 158.176 266.156C158.673 266.742 158.41 267.519 158.536 268.224C158.642 268.904 158.972 269.493 159.253 270.099C159.631 270.884 159.877 271.771 160.129 272.612C160.615 274.243 160.855 275.939 161.093 277.659C161.351 279.405 161.582 281.171 161.84 282.917C162.333 286.215 162.834 289.634 163.944 292.747C164.488 294.291 165.234 295.74 165.726 297.325C166.183 298.81 166.494 300.324 166.754 301.856C167.05 303.488 167.697 304.973 168.096 306.546C168.509 308.192 169.079 309.715 169.717 311.27C170.338 312.775 170.818 314.263 171.094 315.868C171.372 317.45 171.528 319.064 171.952 320.617C172.804 323.698 174.329 326.53 175.535 329.441C176.723 332.302 177.833 335.225 178.398 338.318C179.002 341.678 179.047 345.135 179.551 348.53C179.789 350.059 180.026 351.589 179.717 353.121C179.451 354.302 181.206 354.52 181.448 353.336C181.796 351.69 181.555 349.994 181.309 348.344C181.051 346.598 180.866 344.838 180.705 343.08C180.558 341.396 180.437 339.691 180.147 338.012C179.866 336.454 179.462 334.928 178.981 333.44C178.001 330.438 176.722 327.541 175.44 324.668C174.772 323.157 174.105 321.646 173.637 320.065C173.209 318.536 173.077 316.924 172.795 315.366C172.5 313.734 172.046 312.226 171.425 310.721C170.807 309.192 170.19 307.663 169.797 306.043C169.387 304.374 168.749 302.819 168.439 301.114C168.16 299.532 167.806 297.988 167.331 296.454C166.819 294.843 166.052 293.367 165.514 291.776C164.99 290.259 164.662 288.695 164.36 287.11C163.703 283.601 163.269 280.024 162.736 276.483C162.478 274.737 162.164 273.055 161.634 271.395C161.397 270.627 161.136 269.857 160.797 269.148C160.455 268.463 160.238 267.913 160.241 267.127C160.237 265.627 159.371 264.187 157.932 263.912C156.514 263.665 155.663 264.773 154.953 265.898C154.184 267.112 153.234 268.255 152.316 269.331C151.346 270.448 150.202 271.044 148.916 271.646C147.653 272.25 146.337 272.896 145.209 273.755C144.682 274.166 144.171 274.649 143.811 275.247C143.396 275.91 143.242 276.771 142.695 277.346C142.309 277.774 141.803 278.021 141.324 278.247C140.642 278.566 140.008 278.892 139.365 279.288C138.154 280.042 136.923 280.77 135.619 281.322C134.289 281.894 132.97 282.182 131.596 282.535C130.175 282.882 128.777 283.422 127.417 284.038C124.645 285.312 122.04 286.964 119.271 288.214C116.4 289.523 113.503 290.853 110.579 292.012C109.102 292.614 107.587 293.14 106.046 293.495C104.529 293.854 102.996 294.14 101.458 294.472C99.9201 294.804 98.3615 295.11 96.8028 295.226C95.2207 295.338 93.5947 295.231 92.0067 295.2C90.369 295.187 88.7196 295.077 87.1053 294.876C85.4909 294.676 83.8239 294.325 82.2096 294.315C80.6889 294.316 79.1829 294.581 77.671 294.512C76.0654 294.431 74.4569 294.184 72.8747 293.916C71.2925 293.647 69.7337 293.382 68.1427 293.184C67.0197 293.044 66.7864 294.92 67.9095 295.059L67.9241 295.133Z" fill="#672145"/>
<path d="M246.499 154.512C247.014 155.338 247.275 156.298 247.79 157.124C248.288 157.9 249.016 158.538 249.759 159.059C251.336 160.136 252.936 161.216 254.542 162.248C255.399 162.807 256.262 163.319 257.16 163.74C258.125 164.194 259.151 164.536 260.143 164.968C262.105 165.808 264.036 166.714 265.996 167.577C267.868 168.381 269.801 169.264 271.801 169.608C273.708 169.941 275.644 169.848 277.56 169.92C278.531 169.945 279.496 170.018 280.446 170.207C280.888 170.286 281.303 170.385 281.733 170.558C282.163 170.73 282.532 171.014 282.929 171.254C284.524 172.19 286.48 171.934 288.24 172.105C289.223 172.228 290.22 172.423 291.218 172.428C292.262 172.439 293.194 172.198 294.227 171.922C296.171 171.378 298.183 171.819 300.146 171.896C302.202 171.985 304.251 171.55 306.319 171.355C308.363 171.157 310.258 170.631 312.132 169.698C313.018 169.261 313.883 168.797 314.805 168.459C315.699 168.142 316.603 167.945 317.495 167.651C319.202 167.102 320.869 166.119 322.375 165.093C325.588 162.945 327.783 159.434 330.03 156.262C331.211 154.6 332.392 152.938 333.681 151.361C334.944 149.804 336.412 148.511 337.718 146.983C338.385 146.209 338.835 145.266 339.217 144.29C339.492 143.61 339.813 142.936 340.044 142.226C340.485 140.972 340.771 139.627 341.371 138.44C341.467 138.238 341.584 138.062 341.701 137.886C341.812 137.757 341.756 137.822 341.838 137.737C341.894 137.672 341.938 137.701 341.841 137.713C342.941 137.469 342.721 135.609 341.598 135.85C340.425 136.109 339.817 137.366 339.394 138.48C338.941 139.638 338.69 140.892 338.213 142.046C337.845 142.905 337.542 143.819 337.103 144.669C336.662 145.543 335.96 146.217 335.282 146.894C333.873 148.29 332.569 149.794 331.35 151.38C328.913 154.552 326.776 157.976 324.21 161.036C323.067 162.394 321.652 163.456 320.146 164.292C319.354 164.741 318.561 165.19 317.734 165.539C316.88 165.909 315.973 166.129 315.087 166.376C313.213 166.928 311.561 167.984 309.74 168.686C307.818 169.423 305.777 169.407 303.795 169.684C302.78 169.82 301.783 170.005 300.762 169.997C299.791 169.972 298.806 169.873 297.84 169.8C296.829 169.722 295.77 169.638 294.749 169.821C293.802 169.988 292.919 170.402 291.957 170.497C290.948 170.586 289.927 170.387 288.947 170.241C288.082 170.134 287.207 170.096 286.333 170.059C285.508 170.004 284.608 169.987 283.85 169.584C283.449 169.367 283.081 169.083 282.68 168.867C282.232 168.644 281.726 168.51 281.241 168.402C277.576 167.494 273.705 168.441 270.087 167.157C266.127 165.76 262.33 163.812 258.416 162.231C256.585 161.479 254.994 160.329 253.353 159.197C251.932 158.211 250.033 157.427 249.091 155.834C248.62 155.038 248.356 154.1 247.859 153.324C247.221 152.34 245.841 153.502 246.479 154.486L246.499 154.512Z" fill="#672145"/>
<path d="M190.78 35.3753C190.643 35.144 190.528 34.9155 190.467 34.6461C190.315 33.9606 189.624 33.5891 189.069 34.0437C187.774 35.0965 187.394 37.1916 186.822 38.7389C186.22 40.3302 185.489 41.8103 184.729 43.3344C184.095 44.6123 183.529 45.9223 183.187 47.3318C182.889 48.5801 182.846 50.0742 183.697 51.0608C184.154 51.5937 184.879 51.4935 185.2 50.8194C185.264 50.6845 185.329 50.5497 185.396 50.3915C185.934 49.3158 184.31 48.6141 183.773 49.6897C183.708 49.8245 183.644 49.9593 183.577 50.1176C184.086 50.0381 184.571 49.9556 185.08 49.8761C184.521 49.2115 184.752 48.1215 185 47.2717C185.365 46.0556 185.888 44.9067 186.452 43.8105C187.116 42.4887 187.779 41.1668 188.308 39.7807C188.623 38.963 188.915 38.1425 189.184 37.319C189.406 36.6801 189.613 35.9681 190.119 35.5311C189.645 35.3294 189.195 35.1305 188.721 34.9288C188.862 35.5175 189.058 36.0418 189.377 36.5337C190.015 37.5175 191.421 36.3357 190.757 35.3724L190.78 35.3753Z" fill="#672145"/>
<path d="M27.2858 150.072C27.9472 151.249 28.4565 152.502 29.0652 153.721C29.6711 154.962 30.4084 156.101 31.1195 157.261C31.772 158.318 32.3544 159.366 32.9046 160.482C33.4372 161.548 34.1219 162.347 34.9732 163.143C38.8026 166.738 43.0616 169.743 47.1453 173.012C48.096 173.773 49.0702 174.537 50.2693 174.829C50.591 174.917 51.0151 174.946 51.2871 175.051C51.7199 175.2 51.954 175.61 52.1648 176.017C52.4193 176.453 53.0364 176.458 53.3814 176.168C53.8024 175.84 53.7788 175.265 53.5447 174.856C53.0589 173.986 52.4182 173.406 51.4706 173.193C50.64 172.995 49.9703 172.84 49.2507 172.322C48.2883 171.655 47.4136 170.856 46.4775 170.168C45.3864 169.39 44.3245 168.567 43.2627 167.745C41.1857 166.106 39.1643 164.403 37.1487 162.652C36.2477 161.874 35.2736 161.11 34.6708 160.035C34.106 159.037 33.6406 158.003 33.0495 157.025C32.2624 155.713 31.4197 154.466 30.7349 153.095C30.053 151.701 29.4208 150.29 28.6862 148.937C28.455 148.503 27.8146 148.495 27.4696 148.785C27.0457 149.137 27.0751 149.665 27.3063 150.098L27.2858 150.072Z" fill="#672145"/>
</g>
</g>
</g>
<defs>
<clipPath id="clip0_67_2">
<rect width="367" height="366" fill="white"/>
</clipPath>
</defs>
</svg>
